<svg version="1.2" xmlns="http://www.w3.org/2000/svg" viewBox="0 0 1279 422" width="1279" height="422">
	<defs>
		<clipPath clipPathUnits="userSpaceOnUse" id="cp1">
			<path d="m1126.15 350.67h-866.67v-290.67h866.67z"/>
		</clipPath>
		<radialGradient id="g1" cx="0" cy="0" r="1" gradientUnits="userSpaceOnUse" gradientTransform="matrix(.416,63.601,-63.601,.416,16.694,268.565)">
			<stop offset="0" stop-color="#ffffff"/>
			<stop offset="1" stop-color="#ee8d30"/>
		</radialGradient>
		<radialGradient id="g2" cx="0" cy="0" r="1" gradientUnits="userSpaceOnUse" gradientTransform="matrix(.416,63.601,-63.601,.416,87.399,276.919)">
			<stop offset="0" stop-color="#ffffff"/>
			<stop offset="1" stop-color="#ee8d30"/>
		</radialGradient>
		<radialGradient id="g3" cx="0" cy="0" r="1" gradientUnits="userSpaceOnUse" gradientTransform="matrix(.327,63.601,-63.601,.327,275.341,257.743)">
			<stop offset="0" stop-color="#ffffff"/>
			<stop offset="1" stop-color="#ee8d30"/>
		</radialGradient>
		<radialGradient id="g4" cx="0" cy="0" r="1" gradientUnits="userSpaceOnUse" gradientTransform="matrix(.327,63.601,-63.601,.327,372.434,246.081)">
			<stop offset="0" stop-color="#ffffff"/>
			<stop offset="1" stop-color="#ee8d30"/>
		</radialGradient>
		<radialGradient id="g5" cx="0" cy="0" r="1" gradientUnits="userSpaceOnUse" gradientTransform="matrix(.327,63.601,-63.601,.327,665.622,241.857)">
			<stop offset="0" stop-color="#ffffff"/>
			<stop offset="1" stop-color="#ee8d30"/>
		</radialGradient>
		<radialGradient id="g6" cx="0" cy="0" r="1" gradientUnits="userSpaceOnUse" gradientTransform="matrix(.327,63.601,-63.601,.327,759.532,260.09)">
			<stop offset="0" stop-color="#ffffff"/>
			<stop offset="1" stop-color="#ee8d30"/>
		</radialGradient>
	</defs>
	<style>
		.s0 { fill: #6e6171 } 
		.s1 { fill: #3f4c5f } 
		.s2 { fill: #354253 } 
		.s3 { fill: url(#g1) } 
		.s4 { fill: url(#g2) } 
		.s5 { fill: url(#g3) } 
		.s6 { fill: url(#g4) } 
		.s7 { fill: url(#g5) } 
		.s8 { fill: url(#g6) } 
	</style>
	<g id="&lt;Clip Group&gt;" clip-path="url(#cp1)">
		<g id="&lt;Group&gt;">
			<g id="&lt;Group&gt;" style="opacity: .51">
				<path id="&lt;Path&gt;" class="s0" d="m833.91 306.57v-15.32h-7.7v-29.06h2.93v-7.21h-2.93v-41.02h2.93v-7.21h-2.93v-18.21h1.28v-3.41h-0.02c8.34-10.06-2.49-16.02-7.84-22.98q0.19-0.4 0.2-0.86v-1.51c0-0.71-0.38-1.34-0.95-1.68 0.29-0.2 0.47-0.47 0.47-0.78 0-0.36-0.26-0.69-0.66-0.88l-0.16-2.46c0.23-0.13 0.37-0.33 0.37-0.55 0-0.24-0.17-0.46-0.45-0.59l-0.09-1.44-0.49-7.4-0.49 7.4-0.1 1.44c-0.27 0.13-0.45 0.35-0.45 0.59 0 0.22 0.15 0.42 0.38 0.55l-0.16 2.38c-0.5 0.18-0.84 0.54-0.84 0.96 0 0.34 0.21 0.64 0.56 0.84-0.52 0.35-0.86 0.95-0.86 1.62v1.51q0 0.46 0.2 0.86c-5.35 6.96-16.18 12.92-7.85 22.98h-0.02v3.41h1.29v18.21h-2.14v7.21h2.14v41.02h-2.14v7.21h2.14v29.06h-5.49v-27.95h-5.62v-1.03h-0.54c8.82-9.76-4.41-15.55-10.32-22.49v-0.83c0-0.51-0.26-0.97-0.65-1.24 0.26-0.15 0.43-0.38 0.43-0.64 0-0.32-0.27-0.59-0.65-0.73l-0.12-1.82q0.27-0.16 0.29-0.42c0-0.19-0.14-0.36-0.35-0.45l-0.07-1.1-0.38-5.67-0.37 5.67-0.07 1.1c-0.21 0.09-0.35 0.26-0.35 0.45q0.01 0.26 0.29 0.42l-0.13 1.88c-0.3 0.15-0.5 0.39-0.5 0.67 0 0.24 0.14 0.45 0.36 0.6-0.43 0.26-0.73 0.74-0.73 1.28v0.73c-5.85 6.98-19.26 12.79-10.4 22.59h-0.53v1.03h-11.09v-7.94h0.81v-2.71h-0.76c12.56-13.88-6.43-22.11-14.73-31.99v-1.03c0-0.77-0.41-1.45-1.03-1.82 0.32-0.22 0.51-0.51 0.51-0.84 0-0.4-0.28-0.75-0.71-0.96l-0.18-2.66c0.25-0.14 0.41-0.36 0.41-0.6 0-0.26-0.2-0.5-0.49-0.64l-0.1-1.56-0.53-8.01-0.53 8.01-0.11 1.56c-0.29 0.14-0.49 0.38-0.49 0.64 0 0.24 0.16 0.46 0.41 0.6l-0.17 2.57c-0.54 0.2-0.91 0.59-0.91 1.05 0 0.36 0.23 0.68 0.6 0.9-0.56 0.38-0.93 1.03-0.93 1.76v1.18c-8.36 9.81-27.1 18.02-14.61 31.84h-0.76v2.71h1.15v7.94h-9.42v-28.85h-4.5v-5.59-1.73h-2.65v-8.79h1.39v-3.27h-0.91q0.65-0.73 1.21-1.43 0.18-0.24 0.36-0.48 0.35-0.47 0.67-0.92 0.19-0.29 0.36-0.56 0.26-0.41 0.49-0.82 0.17-0.29 0.32-0.58 0.2-0.38 0.37-0.76 0.14-0.29 0.27-0.58 0.15-0.39 0.27-0.76 0.11-0.28 0.19-0.55 0.18-0.6 0.3-1.18 0.05-0.32 0.09-0.63 0.04-0.24 0.07-0.49v-0.07q0.09-1.04 0-2.03v-0.18q-0.03-0.22-0.06-0.44-0.02-0.16-0.05-0.32-0.09-0.56-0.24-1.12-0.01-0.05-0.03-0.1-0.14-0.51-0.33-1.02-0.06-0.16-0.12-0.32-0.17-0.42-0.36-0.84-0.06-0.14-0.12-0.27-0.26-0.54-0.56-1.06-0.07-0.11-0.13-0.21-0.25-0.43-0.53-0.86-0.11-0.16-0.22-0.32-0.28-0.41-0.59-0.83-0.07-0.11-0.16-0.21-0.38-0.51-0.8-1.02-0.11-0.13-0.22-0.26-0.33-0.39-0.67-0.77-0.14-0.15-0.28-0.31-0.39-0.43-0.81-0.86-0.06-0.07-0.13-0.14-0.47-0.49-0.97-0.98-0.15-0.14-0.3-0.29-0.38-0.36-0.76-0.72-0.16-0.15-0.32-0.3-0.51-0.47-1.03-0.95-0.06-0.05-0.12-0.1-0.48-0.44-0.98-0.88-0.18-0.16-0.37-0.32-0.39-0.35-0.79-0.7-0.17-0.15-0.34-0.29-0.53-0.46-1.06-0.92-0.54-0.47-1.08-0.93-0.14-0.13-0.29-0.26-0.47-0.4-0.94-0.81-0.12-0.11-0.23-0.21-0.56-0.48-1.1-0.97-0.11-0.1-0.22-0.2-0.43-0.39-0.85-0.78-0.16-0.14-0.31-0.28-0.45-0.42-0.9-0.85-0.07-0.06-0.14-0.13-0.5-0.49-0.98-0.97-0.13-0.13-0.26-0.26-0.36-0.38-0.71-0.76-0.14-0.14-0.27-0.28-0.46-0.5-0.88-1v-1.42c0-0.88-0.45-1.66-1.13-2.12 0.45-0.26 0.73-0.65 0.73-1.09 0-0.55-0.44-1.02-1.1-1.26l-0.2-3.11c0.3-0.17 0.49-0.43 0.49-0.72 0-0.32-0.24-0.6-0.59-0.77l-0.13-1.88-0.64-9.68-0.64 9.68-0.12 1.88c-0.36 0.17-0.59 0.45-0.59 0.77 0 0.29 0.19 0.55 0.49 0.72l-0.21 3.21c-0.53 0.26-0.87 0.68-0.87 1.16 0 0.4 0.24 0.76 0.62 1.01-0.74 0.46-1.24 1.27-1.24 2.2v1.25c-10.02 11.93-32.94 21.85-17.79 38.61h-0.91v3.27h0.98v8.79h-2.65v1.73 5.59h-4.51v28.85h-9.42v-7.94h1.15v-2.71h-0.75c12.49-13.82-6.26-22.03-14.62-31.84v-1.18c0-0.73-0.37-1.38-0.93-1.76 0.37-0.22 0.61-0.54 0.61-0.9 0-0.46-0.37-0.85-0.91-1.05l-0.17-2.57c0.24-0.14 0.4-0.36 0.4-0.6 0-0.26-0.19-0.5-0.49-0.64l-0.1-1.56-0.53-8.01-0.53 8.01-0.1 1.56c-0.3 0.14-0.49 0.38-0.49 0.64 0 0.24 0.16 0.46 0.4 0.6l-0.17 2.66c-0.43 0.21-0.72 0.56-0.72 0.96 0 0.33 0.2 0.62 0.51 0.84-0.61 0.37-1.02 1.05-1.02 1.82v1.03c-8.3 9.88-27.29 18.11-14.74 31.99h-0.75v2.71h0.81v7.94h-11.05v-1.03h-0.53c8.82-9.76-4.42-15.55-10.32-22.49v-0.83c0-0.51-0.26-0.97-0.66-1.24 0.26-0.15 0.43-0.38 0.43-0.64 0-0.32-0.26-0.59-0.65-0.73l-0.12-1.82q0.28-0.16 0.29-0.42c0-0.19-0.14-0.36-0.34-0.45l-0.08-1.1-0.37-5.67-0.38 5.67-0.07 1.1c-0.21 0.09-0.34 0.26-0.34 0.45q0.01 0.26 0.28 0.42l-0.12 1.88c-0.31 0.15-0.51 0.39-0.51 0.67 0 0.24 0.14 0.45 0.36 0.6-0.43 0.26-0.72 0.74-0.72 1.28v0.73c-5.86 6.98-19.27 12.79-10.4 22.59h-0.54v1.03h-5.67v27.95h-5.48v-29.06h2.14v-7.21h-2.14v-41.02h2.14v-7.21h-2.14v-18.21h1.28v-3.41h-0.02c8.34-10.06-2.49-16.02-7.84-22.98q0.2-0.4 0.2-0.86v-1.51c0-0.67-0.34-1.27-0.86-1.62 0.34-0.2 0.56-0.5 0.56-0.84 0-0.42-0.34-0.78-0.84-0.96l-0.16-2.38c0.23-0.13 0.37-0.33 0.37-0.55 0-0.24-0.17-0.46-0.45-0.59l-0.09-1.44-0.49-7.4-0.49 7.4-0.1 1.44c-0.27 0.13-0.45 0.35-0.45 0.59 0 0.22 0.15 0.42 0.38 0.55l-0.16 2.46c-0.41 0.19-0.67 0.52-0.67 0.88 0 0.31 0.18 0.58 0.48 0.78-0.57 0.34-0.95 0.97-0.95 1.68v1.51q0 0.46 0.2 0.86c-5.35 6.96-16.18 12.92-7.85 22.98h-0.02v3.41h1.29v18.21h-2.93v7.21h2.93v41.02h-2.93v7.21h2.93v29.06h-7.7v15.32h-4.73v4.06h291.65v-4.06z"/>
				<g id="&lt;Group&gt;">
					<path id="&lt;Compound Path&gt;" fill-rule="evenodd" class="s0" d="m546.85 246.12h2.08v7.03h-2.08v39.96h2.08v7.02h-2.08v37.33c-0.25 0-16.01 0-16.25 0-66.83 0-122.81 0-281.84 0v-26.42-34.47h11.29v-19.58h-1.97v-4.84h1.97v-27.56h-1.97v-4.84h1.97v-12.23h-0.86v-2.29h0.01c-5.6-6.76 1.68-10.76 5.27-15.44q-0.13-0.26-0.14-0.57v-1.02c0-0.47 0.26-0.89 0.64-1.12q-0.3-0.21-0.31-0.53c0-0.24 0.17-0.46 0.44-0.59l0.11-1.65q-0.24-0.14-0.25-0.37c0-0.16 0.12-0.31 0.3-0.4l0.06-0.96 0.33-4.97 0.33 4.97 0.07 0.96c0.18 0.09 0.3 0.24 0.3 0.4q-0.01 0.23-0.25 0.37l0.1 1.6c0.34 0.12 0.57 0.36 0.57 0.64 0 0.23-0.15 0.43-0.38 0.56 0.35 0.24 0.58 0.64 0.58 1.09v1.02q0 0.31-0.14 0.57c3.51 4.57 10.58 9.03 5.27 15.44h0.02v2.29h-0.87v12.23h1.44v4.84h-1.44v27.55h23.81v-2.72h1.1c-18.24-20.18 9.35-32.13 21.41-46.49v-1.51c0-1.12 0.6-2.1 1.49-2.64-0.45-0.31-0.74-0.75-0.74-1.22 0-0.58 0.41-1.09 1.04-1.4l0.26-3.86c-0.36-0.21-0.59-0.52-0.59-0.87 0-0.39 0.28-0.73 0.71-0.93l0.15-2.26 0.77-11.66 0.77 11.66 0.15 2.26c0.43 0.2 0.71 0.54 0.71 0.93 0 0.35-0.23 0.66-0.59 0.87l0.25 3.74c0.79 0.28 1.32 0.86 1.32 1.52 0 0.52-0.34 0.99-0.88 1.31 0.82 0.55 1.36 1.49 1.36 2.55v1.71c12.14 14.27 39.39 26.2 21.24 46.29h1.09v2.72h23.81v-27.55h-1.97v-4.84h1.97v-12.23h-0.87v-2.29h0.02c-5.6-6.76 1.68-10.76 5.27-15.44q-0.13-0.26-0.14-0.57v-1.02c0-0.47 0.26-0.89 0.64-1.12q-0.3-0.21-0.32-0.53c0-0.24 0.18-0.46 0.45-0.59l0.11-1.65q-0.24-0.14-0.25-0.37c0-0.16 0.11-0.31 0.3-0.4l0.06-0.96 0.33-4.97 0.33 4.97 0.06 0.96c0.19 0.09 0.31 0.24 0.31 0.4q-0.01 0.23-0.26 0.37l0.11 1.6c0.34 0.12 0.57 0.36 0.57 0.64 0 0.23-0.15 0.43-0.38 0.56 0.35 0.24 0.58 0.64 0.58 1.09v1.02q0 0.31-0.14 0.57c3.51 4.57 10.58 9.03 5.27 15.44h0.02v2.29h-0.87v12.23h1.44v4.84h-1.44v27.56h1.44v4.84h-1.44v19.58h13.97c-12.12-15.91 9.82-25.69 19.62-37.36v-1.28c0-0.94 0.51-1.77 1.26-2.23-0.38-0.26-0.62-0.62-0.62-1.03 0-0.48 0.34-0.91 0.88-1.18l0.21-3.25c-0.3-0.18-0.5-0.44-0.5-0.74 0-0.32 0.24-0.61 0.6-0.78l0.13-1.91 0.65-9.84 0.65 9.84 0.13 1.91c0.36 0.17 0.6 0.46 0.6 0.78 0 0.3-0.2 0.56-0.5 0.74l0.21 3.15c0.66 0.24 1.12 0.72 1.12 1.28 0 0.45-0.29 0.84-0.75 1.11 0.69 0.47 1.14 1.26 1.14 2.15v1.45c9.88 11.59 31.55 21.36 19.48 37.19h9.46v-7.77h-2.1v-5.18h2.1v-29.49h-2.1v-5.18h2.1v-13.09h-0.92v-2.45h0.01c-5.99-7.23 1.8-11.52 5.64-16.52q-0.14-0.28-0.14-0.62v-1.08c0-0.51 0.27-0.96 0.68-1.21q-0.33-0.22-0.34-0.56c0-0.26 0.19-0.49 0.47-0.64l0.12-1.76q-0.26-0.15-0.27-0.4c0-0.17 0.13-0.33 0.33-0.42l0.06-1.03 0.36-5.32 0.35 5.32 0.07 1.03c0.19 0.09 0.32 0.25 0.32 0.42q-0.01 0.25-0.27 0.4l0.11 1.71c0.36 0.13 0.61 0.39 0.61 0.69 0 0.24-0.16 0.46-0.4 0.6 0.37 0.26 0.62 0.68 0.62 1.17v1.08q-0.01 0.34-0.15 0.62c3.75 4.88 11.32 9.67 5.64 16.52h0.02v2.45h-0.93v13.09h1.54v5.18h-1.54v29.49h1.54v5.18h-1.54v3.73c6.11-6.22 14.3-12.03 19.56-18.29v-1.52c0-1.13 0.6-2.11 1.5-2.66-0.46-0.31-0.75-0.75-0.75-1.23 0-0.58 0.42-1.09 1.05-1.41l0.26-3.88c-0.36-0.21-0.6-0.53-0.6-0.88 0-0.39 0.29-0.73 0.72-0.93l0.15-2.28 0.78-11.73 0.77 11.73 0.15 2.28c0.43 0.2 0.72 0.54 0.72 0.93 0 0.35-0.23 0.67-0.6 0.88l0.25 3.76c0.8 0.29 1.34 0.86 1.34 1.53 0 0.53-0.35 1-0.89 1.32 0.82 0.56 1.36 1.5 1.36 2.57v1.72c12.23 14.37 39.65 26.37 21.38 46.59h1.11v1.97h21.52v-2.87h-2.85v-7.02h2.85v-39.96h-2.85v-7.03h2.85v-17.73h-1.26v-3.33h0.02c-8.12-9.8 2.44-15.61 7.65-22.39q-0.19-0.38-0.2-0.83v-1.47c0-0.69 0.37-1.3 0.93-1.64-0.29-0.19-0.46-0.46-0.46-0.75 0-0.36 0.25-0.68 0.64-0.87l0.16-2.39c-0.23-0.12-0.37-0.32-0.37-0.53 0-0.24 0.18-0.45 0.44-0.58l0.09-1.4 0.48-7.21 0.48 7.21 0.09 1.4c0.27 0.13 0.44 0.34 0.44 0.58 0 0.21-0.14 0.41-0.36 0.53l0.15 2.32c0.49 0.17 0.82 0.53 0.82 0.94 0 0.32-0.21 0.61-0.55 0.81 0.51 0.34 0.84 0.92 0.84 1.58v1.47q0 0.45-0.19 0.83c5.18 6.75 15.34 13.09 7.64 22.39h0.02v3.33h-1.25zm-208.18 18.76c0.11-2.4-3.53-4.07-4.66-6.17-1.14 2.1-4.78 3.77-4.67 6.17v10.86h9.33v-10.86zm-36.2 10.86h9.33v-10.86c0.12-2.4-3.52-4.07-4.66-6.17-1.14 2.1-4.78 3.77-4.66 6.17h-0.01zm70.48-55.99h5.09v-5.99c0.06-1.33-1.93-2.25-2.55-3.41-0.62 1.16-2.6 2.08-2.54 3.41zm0 32.39h5.09v-5.99c0.06-1.33-1.93-2.25-2.55-3.41-0.62 1.16-2.6 2.08-2.54 3.41zm-16.74 23.6h9.33v-10.85c0.11-2.4-3.53-4.08-4.66-6.18-1.14 2.1-4.78 3.78-4.67 6.18zm-80.61 0h9.33v-10.85c0.12-2.4-3.52-4.08-4.66-6.18-1.14 2.1-4.78 3.78-4.66 6.18h-0.01zm-12.49-56h5.09v-5.99c0.06-1.33-1.93-2.25-2.55-3.41-0.62 1.16-2.6 2.08-2.54 3.41zm0 32.39h5.09v-5.99c0.06-1.32-1.93-2.25-2.55-3.41-0.62 1.16-2.6 2.09-2.54 3.41zm188.99-23.19h5.45v-6.42c0.07-1.42-2.06-2.41-2.72-3.65-0.67 1.24-2.79 2.23-2.73 3.65zm0 34.67h5.45v-6.41c0.07-1.42-2.06-2.41-2.72-3.66-0.67 1.25-2.79 2.24-2.73 3.66zm90.31 20.79c0.09-1.92-2.79-3.27-3.69-4.95-0.9 1.68-3.78 3.03-3.69 4.95v8.69h7.38zm0-46.98c0.09-1.92-2.79-3.27-3.69-4.95-0.9 1.68-3.78 3.03-3.69 4.95v8.69h7.38z"/>
				</g>
			</g>
			<path id="&lt;Path&gt;" class="s1" d="m1251.08 328.96l-2.74-56.5-25.61 0.43-0.73-44.76-14.39 0.35-0.35-16.63-32.89-11.85-29.82 5.84 2.06 73.59-3.77 0.18-1.03-12.21-31.87-1.24 0.35 13.63-4.63 0.53 0.17 4.95-3.43 0.18 0.17-27.42-22.1-2.13-9.94 1.77 0.26 23.18-6.25 0.53-0.6 4.51-4.03 0.44-0.6-11.94-31.44 0.35-0.26-11.5-5.05-0.26-0.69-3.27-4.45-0.45-6.6 0.8 0.17 2.48-6.17-0.27-10.19 1.33v7.16l-6.25 0.45-0.69-31.85-20.05-1.06-10.02 5.75-10.97 0.09-3.25 1.24-21.08-0.36-1.88 1.51 0.08-6.64c0 0-3.25-1.06-5.99-1.06-2.75 0-12.68 1.15-12.68 1.15l-0.43 6.1-1.71 0.89 0.51 30.07-2.57-0.35-1.03-2.83-6-0.18-3.59 3.81-0.09 2.74-4.97-0.09-1.71-17.51-0.77 17.16-1.12 0.09-5.99 6.54-0.78-10.17-2.86-0.13-0.22-1.29h-3.81l-0.34-6.06-3.77-0.44-0.52 3.81-1.45 0.26-0.43 3.81-2.57 0.26-0.43 11.5h-2.74l-0.09 18.49h-2.48l-0.52-39.76-6.94-0.05-0.47-2.96-0.94-0.66-14.95 0.04-0.34-35.03-1.2-2.83-6-3.8-15.59 0.62-2.23 3.18-0.08 36h-10.88l-0.18 10h-6.29l-0.22-9.07-0.98-0.48-0.43-2.44-4.63-0.09-0.13 2.22-0.98 0.13c0 0-0.04 3.83-0.04 4.38 0 0.55-9 0.44-9 0.44l-0.51 13.36-4.29 0.17-0.1 7.39-0.9-0.07-0.37 5.31-2.8 0.11-0.48 1.46-2.93 0.05-0.04-1.42c0 0-3.3 0.13-3.51 0.22-0.22 0.09-0.43-2.52-0.43-2.52l-2.23-0.35-0.22-11.37-3.94-1.06-15.5 0.62-0.34-16.72-1.12-0.8-0.08-11.85-0.69-1.15 0.07-5.78h-29l0.53 33.38-5.02-0.09-0.17 9.07-1.5 0.04 0.07 12.94h-0.86l-0.37-29.76-2.31-2.17v-4.29l-1.71-1.33-0.77-4.16-5.49 0.09-0.34 4.51-5.74 0.62-6.17-0.09-1.45 0.98-12.3-0.14-0.17 0.71-6.6-0.48-4.19 1.72 0.04 4.78-2.1-0.09-19.06 1.77v34.41l-1.2-0.27-0.43-20.39h-5.74l-0.21-5.61-10.2-0.31-7.75 0.75v-12.3l-0.69-0.62-0.04-8.66-1.84-0.53-0.39-5.62-2.04-0.47-0.68-2.43-1.35-1.06-0.19-8.71-0.5-0.86v-2.15l-0.68-0.35-0.77-14.82-0.3 15.04-0.86 0.4-0.09 1.76-0.51 0.89-0.26 9.15-1.54 0.98-0.17 1.77-2.23 0.62v6.01l-2.14 0.27 0.26 29.45-3.52-0.18v15.04l-3.77 0.27-10.53 1.24-0.09-18.76-4.63 0.09-0.25-13.27-8.74-0.35-20.39 2.57-0.09 11.94-11.31 0.62-0.25 1.85-2.83 0.18-0.17-5.84-13.28-0.44-6.17 0.35-0.09 5.93-11.39 1.5 0.08 19.73-5.73 0.53-0.09 2.74-1.37 0.36-0.09 6.72-2.91 0.53-0.51 1.77h-5.32l-3.94 0.97-0.34 2.48-5.83-0.31-0.27-7.74-2.7-0.13-0.47-15.22-12.41-0.06c0 0-0.15 8.41-0.13 9.17-0.08-0.75-1.26-8.95-1.26-8.95l-3.04-0.05-1.33 8.32-4.02 0.26v2.22l-1.97-0.09 0.34-10.53-0.95-0.13-0.08-7.96-2.53 0.22-0.08-2.52h-1.33l-0.22-4.91-10.06 0.13-0.17 4.87-2.83 0.44 0.08 2.83-1.62 0.27-0.09 4.15-4.63 0.62v2.97l-1.28 0.3-0.3 38.17-3.94-0.17 0.25-16.94-3.42-0.31-0.26-1.95h-4.67l-0.13 1.81h-5.31l-0.17-2.69-6.43 0.17-0.6 34.59-4.19-0.18-0.43-5.75-5.66-0.7-0.17-4.25-17.28 0.44v27.33h-13.8v48.47h942.87v-91.71z"/>
			<g id="&lt;Group&gt;">
				<path id="&lt;Path&gt;" class="s2" d="m511.75 211.13c-20.33 24.21-66.85 44.36-36.1 78.38h-1.85v6.64h86.02v-6.64h-1.85c30.61-33.86-15.32-53.98-35.81-78.03v-2.89c0-1.79-0.9-3.37-2.28-4.31 0.91-0.53 1.49-1.32 1.49-2.21 0-1.11-0.91-2.08-2.24-2.56l-0.42-6.3c0.61-0.35 1-0.88 1-1.47 0-0.65-0.47-1.22-1.2-1.57l-0.25-3.81-1.3-19.65-1.3 19.65-0.25 3.81c-0.73 0.35-1.2 0.92-1.2 1.57 0 0.59 0.39 1.12 1 1.47l-0.44 6.51c-1.06 0.52-1.75 1.38-1.75 2.35 0 0.81 0.48 1.54 1.25 2.06-1.5 0.92-2.52 2.57-2.52 4.46z"/>
				<path id="&lt;Path&gt;" class="s2" d="m279.12 319.29h475.39v-24.36h-475.39z"/>
				<path id="&lt;Path&gt;" class="s2" d="m169.7 335.61h694.22v-20.34h-694.22z"/>
				<g id="&lt;Group&gt;">
					<path id="&lt;Path&gt;" class="s2" d="m414.91 245.03c-12.95 15.41-42.57 28.24-22.99 49.9h-1.17v4.22h54.76v-4.22h-1.18c19.49-21.56-9.76-34.36-22.8-49.68v-1.84c0-1.14-0.57-2.14-1.45-2.74 0.58-0.34 0.95-0.84 0.95-1.41 0-0.71-0.58-1.32-1.43-1.63l-0.26-4.01c0.38-0.22 0.63-0.56 0.63-0.93 0-0.42-0.3-0.78-0.76-1l-0.16-2.43-0.83-12.51-0.83 12.51-0.16 2.43c-0.46 0.22-0.76 0.58-0.76 1 0 0.37 0.25 0.71 0.63 0.93l-0.27 4.14c-0.68 0.34-1.12 0.88-1.12 1.5 0 0.52 0.31 0.98 0.8 1.31-0.96 0.59-1.6 1.64-1.6 2.84z"/>
					<path id="&lt;Path&gt;" class="s2" d="m612.28 245.03c-12.95 15.41-42.57 28.24-22.99 49.9h-1.17v4.22h54.76v-4.22h-1.18c19.49-21.56-9.76-34.36-22.8-49.68v-1.84c0-1.14-0.57-2.14-1.45-2.74 0.58-0.34 0.95-0.84 0.95-1.41 0-0.71-0.58-1.32-1.43-1.63l-0.26-4.01c0.38-0.22 0.63-0.56 0.63-0.93 0-0.42-0.3-0.78-0.76-1l-0.16-2.43-0.83-12.51-0.83 12.51-0.16 2.43c-0.46 0.22-0.76 0.58-0.76 1 0 0.37 0.25 0.71 0.63 0.93l-0.27 4.14c-0.68 0.34-1.12 0.88-1.12 1.5 0 0.52 0.31 0.98 0.8 1.31-0.96 0.59-1.6 1.64-1.6 2.84z"/>
				</g>
				<g id="&lt;Group&gt;">
					<path id="&lt;Path&gt;" class="s2" d="m711.65 254.23c-12.94 15.41-42.56 28.23-22.98 49.9h-1.18v4.22h54.77v-4.22h-1.18c19.49-21.56-9.76-34.37-22.8-49.68v-1.84c0-1.14-0.58-2.15-1.45-2.74 0.58-0.34 0.95-0.85 0.95-1.41 0-0.71-0.58-1.32-1.43-1.63l-0.27-4.01c0.39-0.23 0.64-0.56 0.64-0.94 0-0.41-0.3-0.78-0.76-1l-0.16-2.43-0.83-12.5-0.83 12.5-0.16 2.43c-0.46 0.22-0.76 0.59-0.76 1 0 0.38 0.25 0.71 0.63 0.94l-0.27 4.14c-0.68 0.33-1.12 0.88-1.12 1.5 0 0.51 0.31 0.98 0.8 1.31-0.96 0.58-1.61 1.64-1.61 2.84z"/>
					<path id="&lt;Path&gt;" class="s2" d="m315.53 254.23c-12.95 15.41-42.56 28.23-22.98 49.9h-1.18v4.22h54.76v-4.22h-1.18c19.49-21.56-9.75-34.37-22.79-49.68v-1.84c0-1.14-0.58-2.15-1.46-2.74 0.58-0.34 0.95-0.85 0.95-1.41 0-0.71-0.58-1.32-1.42-1.63l-0.27-4.01c0.39-0.23 0.63-0.56 0.63-0.94 0-0.41-0.3-0.78-0.76-1l-0.16-2.43-0.83-12.5-0.82 12.5-0.17 2.43c-0.46 0.22-0.76 0.59-0.76 1 0 0.38 0.25 0.71 0.64 0.94l-0.28 4.14c-0.67 0.33-1.12 0.88-1.12 1.5 0 0.51 0.31 0.98 0.8 1.31-0.96 0.58-1.6 1.64-1.6 2.84z"/>
				</g>
				<g id="&lt;Group&gt;">
					<path id="&lt;Path&gt;" class="s2" d="m190.43 296.06c-5.48 6.52-18 11.94-9.72 21.1h-0.5v1.79h23.16v-1.79h-0.5c8.24-9.12-4.13-14.53-9.64-21.01v-0.78c0-0.48-0.25-0.9-0.62-1.15 0.25-0.15 0.41-0.36 0.41-0.6 0-0.3-0.25-0.56-0.61-0.69l-0.11-1.7q0.26-0.14 0.27-0.39c0-0.18-0.13-0.33-0.32-0.42l-0.07-1.03-0.35-5.29-0.35 5.29-0.07 1.03c-0.19 0.09-0.32 0.24-0.32 0.42q0.01 0.25 0.27 0.39l-0.12 1.76c-0.29 0.14-0.47 0.37-0.47 0.63q0.01 0.34 0.33 0.56c-0.4 0.24-0.67 0.69-0.67 1.19z"/>
					<path id="&lt;Path&gt;" class="s2" d="m220.73 296.06c-5.48 6.52-18 11.94-9.72 21.1h-0.5v1.79h23.16v-1.79h-0.5c8.24-9.12-4.13-14.53-9.64-21.01v-0.78c0-0.48-0.24-0.9-0.61-1.15 0.24-0.15 0.4-0.36 0.4-0.6 0-0.3-0.25-0.56-0.61-0.69l-0.11-1.7q0.26-0.14 0.27-0.39c0-0.18-0.13-0.33-0.32-0.42l-0.07-1.03-0.35-5.29-0.35 5.29-0.07 1.03c-0.19 0.09-0.32 0.24-0.32 0.42q0.01 0.25 0.27 0.39l-0.12 1.76c-0.29 0.14-0.47 0.37-0.47 0.63q0.01 0.33 0.34 0.55c-0.41 0.25-0.68 0.7-0.68 1.2z"/>
					<path id="&lt;Path&gt;" class="s2" d="m251.03 296.06c-5.47 6.52-18 11.94-9.72 21.1h-0.5v1.79h23.16v-1.79h-0.5c8.24-9.12-4.12-14.53-9.64-21.01v-0.78c0-0.48-0.24-0.9-0.61-1.15 0.24-0.15 0.4-0.36 0.4-0.6 0-0.3-0.25-0.56-0.6-0.69l-0.12-1.7q0.26-0.14 0.27-0.39c0-0.18-0.13-0.33-0.32-0.42l-0.07-1.03-0.35-5.29-0.35 5.29-0.07 1.03c-0.19 0.09-0.32 0.24-0.32 0.42q0.01 0.25 0.27 0.39l-0.12 1.76c-0.28 0.14-0.47 0.37-0.47 0.63q0.01 0.33 0.34 0.55c-0.41 0.25-0.68 0.7-0.68 1.2z"/>
				</g>
				<g id="&lt;Group&gt;">
					<path id="&lt;Path&gt;" class="s2" d="m782.71 296.06c-5.47 6.52-18 11.94-9.72 21.1h-0.5v1.79h23.16v-1.79h-0.5c8.24-9.12-4.12-14.53-9.64-21.01v-0.78c0-0.48-0.24-0.9-0.61-1.15 0.24-0.15 0.4-0.36 0.4-0.6 0-0.3-0.25-0.56-0.6-0.69l-0.12-1.7q0.26-0.14 0.27-0.39c0-0.18-0.13-0.33-0.32-0.42l-0.07-1.03-0.35-5.29-0.35 5.29-0.07 1.03c-0.19 0.09-0.32 0.24-0.32 0.42q0.01 0.25 0.27 0.39l-0.12 1.76c-0.28 0.14-0.47 0.37-0.47 0.63q0.01 0.34 0.34 0.56c-0.41 0.24-0.68 0.69-0.68 1.19z"/>
					<path id="&lt;Path&gt;" class="s2" d="m813.01 296.06c-5.47 6.52-18 11.94-9.72 21.1h-0.5v1.79h23.16v-1.79h-0.5c8.24-9.12-4.12-14.53-9.64-21.01v-0.78c0-0.48-0.24-0.9-0.61-1.15 0.24-0.15 0.4-0.36 0.4-0.6 0-0.3-0.25-0.56-0.6-0.69l-0.12-1.7q0.26-0.14 0.27-0.39c0-0.18-0.12-0.33-0.32-0.42l-0.07-1.03-0.35-5.29-0.35 5.29-0.07 1.03c-0.19 0.09-0.32 0.24-0.32 0.42q0.01 0.25 0.27 0.39l-0.12 1.76c-0.28 0.14-0.47 0.37-0.47 0.63q0.01 0.33 0.34 0.55c-0.41 0.25-0.68 0.7-0.68 1.2z"/>
					<path id="&lt;Path&gt;" class="s2" d="m843.31 296.06c-5.47 6.52-18 11.94-9.72 21.1h-0.49v1.79h23.15v-1.79h-0.49c8.24-9.12-4.13-14.53-9.64-21.01v-0.78c0-0.48-0.25-0.9-0.62-1.15 0.25-0.15 0.4-0.36 0.4-0.6 0-0.3-0.24-0.56-0.6-0.69l-0.11-1.7q0.25-0.14 0.26-0.39c0-0.18-0.12-0.33-0.32-0.42l-0.07-1.03-0.35-5.29-0.35 5.29-0.06 1.03c-0.2 0.09-0.33 0.24-0.33 0.42q0.02 0.25 0.27 0.39l-0.11 1.76c-0.29 0.14-0.48 0.37-0.48 0.63q0.02 0.33 0.34 0.55c-0.4 0.25-0.68 0.7-0.68 1.2z"/>
				</g>
				<path id="&lt;Path&gt;" class="s3" d="m22.79 323.79h-13.77v-94.72h13.77z"/>
				<path id="&lt;Path&gt;" class="s4" d="m93.49 332.14h-13.76v-94.72h13.76z"/>
				<path id="&lt;Path&gt;" class="s5" d="m280.14 312.97h-10.84v-94.72h10.84z"/>
				<path id="&lt;Path&gt;" class="s6" d="m377.23 301.31h-10.83v-94.72h10.83z"/>
				<path id="&lt;Path&gt;" class="s7" d="m670.42 297.08h-10.83v-94.72h10.83z"/>
				<path id="&lt;Path&gt;" class="s8" d="m764.33 315.32h-10.83v-94.73h10.83z"/>
				<path id="&lt;Compound Path&gt;" fill-rule="evenodd" class="s2" d="m5.7 359.95v-45.05h-3.44v-8.48h3.44v-48.22h-3.44v-8.48h3.44v-21.4h-1.51v-4.01h0.02c-9.8-11.83 2.94-18.84 9.22-27.02q-0.23-0.46-0.23-1.01v-1.77c0-0.84 0.44-1.57 1.11-1.98-0.34-0.23-0.55-0.55-0.55-0.91 0-0.43 0.3-0.81 0.78-1.04l0.19-2.88c-0.27-0.16-0.45-0.39-0.45-0.65 0-0.29 0.22-0.55 0.53-0.7l0.12-1.69 0.57-8.7 0.58 8.7 0.11 1.69c0.32 0.15 0.53 0.41 0.53 0.7 0 0.26-0.17 0.49-0.44 0.65l0.18 2.79c0.59 0.21 1 0.64 1 1.13 0 0.39-0.26 0.75-0.66 0.98 0.61 0.42 1.01 1.12 1.01 1.91v1.77q-0.01 0.55-0.24 1.01c6.14 7.99 18.51 15.81 9.23 27.02h0.02v4.01h-1.51v21.4h2.51v8.48h-2.51v48.22h2.51v8.48h-2.51v45.05zm9.8-126.69c-1.09 2.03-4.56 3.65-4.45 5.97h-0.01v10.49h8.91v-10.49c0.11-2.32-3.37-3.94-4.45-5.97zm0 56.7c-1.09 2.03-4.56 3.65-4.45 5.97h-0.01v10.49h8.91v-10.49c0.11-2.32-3.37-3.94-4.45-5.97z"/>
				<path id="&lt;Compound Path&gt;" fill-rule="evenodd" class="s2" d="m78.77 353.84v-36.06h-2.76v-6.79h2.76v-38.6h-2.76v-6.78h2.76v-17.13h-1.22v-3.22h0.02c-7.84-9.46 2.35-15.07 7.39-21.62q-0.19-0.37-0.19-0.81v-1.42c0-0.67 0.36-1.25 0.89-1.58-0.27-0.18-0.44-0.44-0.44-0.73 0-0.34 0.24-0.65 0.62-0.83l0.15-2.31c-0.21-0.12-0.35-0.31-0.35-0.52 0-0.23 0.17-0.44 0.42-0.56l0.09-1.35 0.46-6.96 0.46 6.96 0.09 1.35c0.26 0.12 0.43 0.33 0.43 0.56 0 0.21-0.14 0.4-0.36 0.52l0.15 2.23c0.47 0.17 0.8 0.52 0.8 0.91 0 0.32-0.21 0.6-0.53 0.79 0.49 0.33 0.81 0.89 0.81 1.52v1.42q-0.01 0.44-0.19 0.81c4.91 6.39 14.82 12.65 7.38 21.62l0.02 3.22h-1.21v17.13h2.02v6.78h-2.02v38.6h2.02v6.79h-2.02v36.06zm7.85-101.41c-0.87 1.62-3.66 2.92-3.57 4.78v8.4h7.13v-8.4c0.09-1.86-2.7-3.16-3.56-4.78zm0 45.38c-0.87 1.63-3.66 2.93-3.57 4.78v8.4h7.13v-8.4c0.09-1.85-2.7-3.15-3.56-4.78z"/>
				<path id="&lt;Compound Path&gt;" fill-rule="evenodd" class="s2" d="m267.81 323.79v-32.83h-2.51v-6.18h2.51v-35.14h-2.51v-6.17h2.51v-15.6h-1.1v-2.92h0.01c-7.14-8.62 2.14-13.73 6.73-19.69q-0.17-0.34-0.18-0.74v-1.29c0-0.61 0.33-1.14 0.82-1.44-0.25-0.17-0.41-0.4-0.41-0.66 0-0.32 0.23-0.59 0.57-0.76l0.14-2.1c-0.2-0.12-0.32-0.29-0.32-0.48 0-0.21 0.15-0.39 0.38-0.5l0.08-1.23 0.42-6.34 0.42 6.34 0.09 1.23c0.23 0.11 0.38 0.29 0.38 0.5 0 0.19-0.12 0.37-0.32 0.48l0.13 2.03c0.43 0.16 0.73 0.47 0.73 0.83 0 0.28-0.19 0.54-0.48 0.71 0.44 0.31 0.73 0.82 0.73 1.39v1.29q0 0.4-0.17 0.74c4.48 5.82 13.49 11.52 6.72 19.69h0.02v2.92h-1.1v15.6h1.83v6.17h-1.83v35.14h1.83v6.18h-1.83v32.83zm7.14-92.32c-0.79 1.48-3.32 2.66-3.24 4.35h-0.01v7.65h6.5v-7.65c0.08-1.69-2.46-2.87-3.25-4.35zm0 41.32c-0.79 1.47-3.32 2.66-3.24 4.35h-0.01v7.64h6.5v-7.64c0.08-1.69-2.46-2.88-3.25-4.35z"/>
				<path id="&lt;Compound Path&gt;" fill-rule="evenodd" class="s2" d="m751.93 323.79v-32.83h-2.51v-6.18h2.51v-35.14h-2.51v-6.17h2.51v-15.6h-1.1v-2.92h0.02c-7.15-8.62 2.14-13.73 6.72-19.69q-0.17-0.34-0.18-0.74v-1.29c0-0.61 0.33-1.14 0.82-1.44-0.25-0.17-0.41-0.4-0.41-0.66 0-0.32 0.23-0.59 0.57-0.76l0.14-2.1c-0.2-0.12-0.32-0.29-0.32-0.48 0-0.21 0.15-0.39 0.38-0.5l0.09-1.23 0.41-6.34 0.42 6.34 0.09 1.23c0.23 0.11 0.38 0.29 0.38 0.5 0 0.19-0.12 0.37-0.32 0.48l0.14 2.03c0.42 0.16 0.72 0.47 0.72 0.83 0 0.28-0.19 0.54-0.48 0.71 0.44 0.31 0.73 0.82 0.73 1.39v1.29q0 0.4-0.17 0.74c4.48 5.82 13.49 11.52 6.72 19.69h0.02v2.92h-1.1v15.6h1.83v6.17h-1.83v35.14h1.83v6.18h-1.83v32.83zm7.14-92.32c-0.79 1.48-3.32 2.66-3.24 4.35v7.65h6.49v-7.65c0.08-1.69-2.46-2.87-3.25-4.35zm0 41.32c-0.79 1.47-3.32 2.66-3.24 4.35v7.64h6.49v-7.64c0.08-1.69-2.46-2.88-3.25-4.35z"/>
				<path id="&lt;Compound Path&gt;" fill-rule="evenodd" class="s2" d="m657.95 304.95v-32.83h-2.51v-6.17h2.51v-35.14h-2.51v-6.18h2.51v-15.6h-1.11v-2.92h0.02c-7.14-8.62 2.14-13.73 6.72-19.69q-0.17-0.34-0.17-0.74v-1.29c0-0.6 0.33-1.14 0.81-1.43-0.25-0.17-0.4-0.41-0.4-0.67 0-0.31 0.22-0.59 0.57-0.76l0.13-2.1c-0.19-0.11-0.32-0.28-0.32-0.47 0-0.21 0.16-0.4 0.39-0.51l0.08-1.23 0.42-6.34 0.42 6.34 0.08 1.23c0.23 0.11 0.39 0.3 0.39 0.51 0 0.19-0.13 0.36-0.32 0.47l0.13 2.03c0.43 0.16 0.72 0.47 0.72 0.83 0 0.29-0.18 0.54-0.48 0.71 0.45 0.31 0.74 0.82 0.74 1.39v1.29q0 0.4-0.17 0.74c4.47 5.82 13.49 11.52 6.72 19.69h0.02v2.92h-1.11v15.6h1.84v6.18h-1.84v35.14h1.84v6.17h-1.84v32.83zm7.15-92.32c-0.79 1.48-3.33 2.66-3.25 4.35v7.65h6.5v-7.65h-0.01c0.08-1.69-2.45-2.87-3.24-4.35zm0 41.32c-0.79 1.48-3.33 2.66-3.25 4.35v7.65h6.5v-7.65h-0.01c0.08-1.69-2.45-2.87-3.24-4.35z"/>
				<path id="&lt;Compound Path&gt;" fill-rule="evenodd" class="s2" d="m365.59 304.95v-32.83h-2.5v-6.17h2.5v-35.14h-2.5v-6.18h2.5v-15.6h-1.1v-2.92h0.02c-7.14-8.62 2.14-13.73 6.72-19.69q-0.17-0.34-0.17-0.74v-1.29c0-0.6 0.32-1.14 0.81-1.43-0.25-0.17-0.4-0.41-0.4-0.67 0-0.31 0.22-0.59 0.56-0.76l0.14-2.1c-0.19-0.11-0.32-0.28-0.32-0.47 0-0.21 0.15-0.4 0.39-0.51l0.08-1.23 0.42-6.34 0.42 6.34 0.08 1.23c0.23 0.11 0.39 0.3 0.39 0.51 0 0.19-0.13 0.36-0.33 0.47l0.14 2.03c0.43 0.16 0.72 0.47 0.72 0.83 0 0.29-0.18 0.54-0.48 0.71 0.45 0.31 0.74 0.82 0.74 1.39v1.29q-0.01 0.4-0.17 0.74c4.47 5.82 13.48 11.52 6.72 19.69h0.01v2.92h-1.1v15.6h1.84v6.18h-1.84v35.14h1.84v6.17h-1.84v32.83zm7.15-92.32c-0.79 1.48-3.33 2.66-3.25 4.35v7.65h6.49v-7.65c0.08-1.69-2.45-2.87-3.24-4.35zm0 41.32c-0.79 1.48-3.33 2.66-3.25 4.35v7.65h6.49v-7.65c0.08-1.69-2.45-2.87-3.24-4.35z"/>
				<path id="&lt;Path&gt;" class="s2" d="m5.7 365.42h1139.3v-41.31h-1139.3z"/>
			</g>
		</g>
	</g>
</svg>