<svg version="1.2" xmlns="http://www.w3.org/2000/svg" viewBox="15 0 895 328" width="895" height="328" preserveAspectRatio="xMidYMax meet">
	<defs>
		<clipPath clipPathUnits="userSpaceOnUse" id="cp1">
			<path d="m902.15 327.33h-866.67v-290.66h866.67z"/>
		</clipPath>
	</defs>
	<style>
		.s0 { fill: #434b70 } 
		.s1 { fill: #383f5e } 
		.s2 { fill: #2e3352 } 
	</style>
	<g id="&lt;Clip Group&gt;">
		<g id="&lt;Group&gt;">
			<path id="&lt;Path&gt;" class="s0" d="m893.47 295.8l-1.63-19.36-15.22 0.15-0.43-15.33-8.56 0.12-0.2-5.69-19.55-4.06-17.72 2 1.22 25.2-2.24 0.06-0.61-4.18-18.95-0.42 0.21 4.66-2.75 0.19 0.1 1.69-2.04 0.06 0.11-9.39-13.14-0.73-5.91 0.61 0.15 7.94-3.71 0.18-0.36 1.54-2.39 0.16-0.36-4.09-18.69 0.12-0.15-3.94-3-0.09-0.41-1.12-2.65-0.15-3.92 0.27 0.1 0.85-3.66-0.09-6.06 0.45v2.45l-3.72 0.16-0.41-10.91-11.91-0.36-5.96 1.96-6.52 0.03-1.93 0.43-12.53-0.12-1.12 0.51 0.05-2.27c0 0-1.93-0.36-3.56-0.36-1.63 0-7.54 0.39-7.54 0.39l-0.25 2.09-1.02 0.3 0.31 10.31-1.53-0.13-0.61-0.97-3.57-0.06-2.14 1.31-0.05 0.94-2.95-0.03-1.02-6-0.46 5.87-0.66 0.03-3.56 2.25-0.46-3.49-1.71-0.04-0.12-0.44h-2.27l-0.2-2.08-2.24-0.15-0.31 1.3-0.87 0.09-0.25 1.31-1.53 0.09-0.25 3.94h-1.63l-0.05 6.33h-1.48l-0.31-13.62-4.12-0.01-0.28-1.02-0.56-0.23-8.89 0.02-0.2-12-0.71-0.97-3.57-1.3-9.26 0.21-1.33 1.09-0.05 12.33h-6.46l-0.11 3.43h-3.74l-0.13-3.11-0.58-0.17-0.26-0.83-2.75-0.03-0.07 0.76-0.59 0.04c0 0-0.02 1.32-0.02 1.5 0 0.19-5.35 0.15-5.35 0.15l-0.31 4.58-2.54 0.06-0.07 2.53-0.53-0.02-0.22 1.82-1.66 0.03-0.28 0.5-1.75 0.02-0.02-0.49c0 0-1.96 0.05-2.09 0.08-0.13 0.03-0.26-0.86-0.26-0.86l-1.32-0.13-0.13-3.89-2.34-0.36-9.22 0.21-0.2-5.73-0.66-0.27-0.05-4.06-0.41-0.39 0.04-1.98h-17.24l0.32 11.43-2.98-0.03-0.1 3.11-0.89 0.01 0.03 4.43h-0.5l-0.22-10.19-1.38-0.74v-1.47l-1.02-0.46-0.45-1.42-3.26 0.03-0.21 1.54-3.41 0.21-3.66-0.03-0.87 0.34-7.31-0.05-0.1 0.24-3.92-0.16-2.49 0.59 0.02 1.64-1.25-0.04-11.33 0.61v11.79l-0.71-0.09-0.25-6.99h-3.42l-0.12-1.92-6.06-0.11-4.61 0.26v-4.21l-0.41-0.21-0.02-2.97-1.1-0.18-0.23-1.93-1.21-0.16-0.41-0.83-0.8-0.36-0.11-2.99-0.29-0.29-0.01-0.74-0.4-0.12-0.46-5.07-0.18 5.15-0.51 0.13-0.05 0.61-0.3 0.3-0.16 3.14-0.91 0.33-0.11 0.61-1.32 0.21v2.06l-1.27 0.09 0.15 10.09-2.09-0.06v5.15l-2.24 0.09-6.26 0.42-0.05-6.42-2.75 0.03-0.16-4.54-5.19-0.12-12.12 0.87-0.05 4.09-6.72 0.22-0.15 0.63-1.68 0.06-0.11-2-7.89-0.15-3.66 0.12-0.06 2.03-6.77 0.52 0.05 6.75-3.41 0.19-0.05 0.94-0.81 0.12-0.06 2.3-1.73 0.18-0.3 0.61h-3.16l-2.34 0.33-0.2 0.85-3.47-0.11-0.16-2.65-1.61-0.04-0.28-5.21-7.37-0.03c0 0-0.09 2.89-0.08 3.14-0.05-0.25-0.75-3.06-0.75-3.06l-1.8-0.02-0.79 2.85-2.4 0.09v0.76l-1.17-0.03 0.21-3.61-0.56-0.04-0.06-2.73-1.5 0.08-0.05-0.87h-0.79l-0.12-1.68-5.99 0.05-0.1 1.66-1.68 0.16 0.05 0.97-0.97 0.09-0.05 1.42-2.75 0.21v1.02l-0.76 0.1-0.18 13.08-2.34-0.06 0.15-5.81-2.04-0.1-0.15-0.67h-2.77l-0.08 0.62h-3.16l-0.1-0.92-3.82 0.06-0.36 11.85-2.49-0.07-0.25-1.96-3.36-0.25-0.11-1.45-10.27 0.15v9.36h-8.2v16.6h560.39v-31.41z"/>
			<g id="&lt;Group&gt;">
				<g id="&lt;Group&gt;">
					<g id="&lt;Group&gt;">
						<path id="&lt;Path&gt;" class="s1" d="m136.8 244.85c-0.5 5.08-0.75 10.27-0.98 15.37q-0.32 0.23-0.53 0.57-0.24 0.41-0.25 0.91 0.01 0.46 0.21 0.85 0.17 0.31 0.44 0.54l-0.07 1.69q-0.43 0.29-0.7 0.73-0.3 0.51-0.31 1.13 0 0.57 0.27 1.06 0.21 0.4 0.57 0.68l-0.05 1.31c-0.68 0.3-1.15 0.8-1.24 1.37-0.63 0.39-1.31 0.85-1.96 1.35-1.19 0.92-2.27 2.02-2.79 3.2-0.5 1.14-0.63 2.27-0.58 3.26 0.05 0.84 0.22 1.59 0.39 2.14-16.95 3.61-36.07 25.54-21.5 46.13 0.05 0.11 0.17 0.19 0.3 0.19h28.78 28.79c0.13 0 0.24-0.08 0.29-0.19 14.57-20.59-4.55-42.52-21.49-46.13 0.17-0.55 0.34-1.3 0.38-2.14 0.05-0.99-0.08-2.12-0.58-3.26-0.51-1.18-1.6-2.28-2.79-3.2-0.65-0.5-1.33-0.96-1.96-1.35-0.09-0.57-0.56-1.07-1.24-1.37l-0.05-1.31q0.36-0.28 0.58-0.68 0.26-0.49 0.26-1.06 0-0.62-0.31-1.13-0.26-0.44-0.7-0.73l-0.07-1.69q0.27-0.23 0.44-0.54 0.21-0.39 0.21-0.85 0-0.5-0.25-0.91-0.2-0.34-0.53-0.57c-0.23-5.1-0.48-10.29-0.98-15.37z"/>
						<path id="&lt;Path&gt;" class="s1" d="m204.66 211.7c-0.69 7.13-1.05 14.39-1.37 21.55q-0.46 0.31-0.74 0.79-0.35 0.58-0.35 1.29 0 0.64 0.29 1.18 0.24 0.44 0.62 0.76l-0.1 2.38q-0.61 0.4-0.98 1.02c-0.28 0.46-0.44 1.01-0.44 1.58q0.01 0.8 0.37 1.48 0.31 0.57 0.81 0.96l-0.07 1.83c-0.95 0.42-1.61 1.12-1.74 1.93-0.88 0.54-1.83 1.18-2.75 1.89-1.66 1.29-3.19 2.83-3.91 4.48-0.7 1.6-0.88 3.18-0.81 4.57 0.06 1.18 0.3 2.23 0.54 3-23.75 5.07-50.56 35.81-30.13 64.67 0.07 0.16 0.23 0.27 0.41 0.27h40.35 40.35c0.19 0 0.35-0.11 0.41-0.27 20.43-28.86-6.37-59.6-30.12-64.67 0.24-0.77 0.47-1.82 0.54-3 0.06-1.39-0.11-2.97-0.81-4.57-0.73-1.65-2.25-3.19-3.92-4.48-0.91-0.71-1.86-1.35-2.75-1.89-0.12-0.81-0.79-1.51-1.73-1.93l-0.08-1.83q0.51-0.39 0.81-0.96 0.37-0.68 0.38-1.48c0-0.57-0.17-1.12-0.45-1.58q-0.36-0.62-0.97-1.02l-0.1-2.38q0.38-0.32 0.61-0.76 0.29-0.54 0.3-1.18-0.01-0.71-0.35-1.29-0.29-0.48-0.75-0.79c-0.32-7.16-0.67-14.42-1.37-21.55z"/>
						<path id="&lt;Compound Path&gt;" fill-rule="evenodd" class="s1" d="m88.39 265.35h0.16c-0.67-1.71-1.86-5.84-0.01-10.05 0.78-1.76 2.35-3.44 4.13-4.9 1.73-1.43 3.66-2.65 5.23-3.55-0.08-0.23-0.15-0.55-0.17-0.9-0.02-0.41 0.04-0.89 0.25-1.37 0.21-0.49 0.67-0.95 1.17-1.33 0.46-0.36 0.95-0.66 1.32-0.86l0.04-0.83q-0.15-0.12-0.24-0.29-0.11-0.2-0.12-0.44 0.01-0.26 0.14-0.47 0.1-0.18 0.29-0.31l0.03-0.71q-0.12-0.09-0.19-0.22-0.08-0.16-0.09-0.35 0.01-0.22 0.11-0.39 0.08-0.14 0.22-0.24l0.04-0.75 0.26-5.76q0.01-0.12 0.13-0.13 0.11 0.02 0.13 0.13l0.26 5.76 0.03 0.75q0.14 0.1 0.22 0.24 0.11 0.17 0.11 0.39 0 0.19-0.09 0.35-0.07 0.13-0.18 0.22l0.03 0.71q0.18 0.13 0.29 0.31 0.13 0.21 0.13 0.47 0 0.24-0.11 0.44-0.09 0.18-0.24 0.29l0.03 0.83c0.37 0.2 0.87 0.5 1.33 0.86 0.49 0.38 0.95 0.84 1.17 1.33v0.01c0.21 0.48 0.26 0.95 0.24 1.36-0.02 0.35-0.09 0.67-0.16 0.9 1.56 0.9 3.49 2.12 5.23 3.55 1.77 1.46 3.34 3.14 4.12 4.9 1.86 4.22 0.65 8.36-0.01 10.06 0.49 0.08 0.86 0.5 0.86 1.01v0.24c0 0.56-0.46 1.02-1.02 1.02h-1.04v9.02h2.36v2.65h-0.9v4.02h-1.08v10.59h-1.86v33.42h-20.45v-33.42h-1.86v-10.59h-1.08v-4.02h-0.9v-2.65h2.77v-9.02h-1.03c-0.57 0-1.03-0.46-1.03-1.02v-0.24c0-0.56 0.46-1.02 1.03-1.02zm22.17 11.3v-9.02h-2.37v9.02zm-4.22 0v-9.02h-2.37v9.02zm-4.23 0v-9.02h-2.37v9.02zm-4.23 0v-9.02h-2.37v9.02zm-4.23 0v-9.02h-2.37v9.02z"/>
						<path id="&lt;Compound Path&gt;" fill-rule="evenodd" class="s1" d="m152.57 265.35h0.16c-0.66-1.71-1.86-5.84-0.01-10.05 0.78-1.76 2.35-3.44 4.13-4.9 1.73-1.43 3.66-2.65 5.23-3.55-0.07-0.23-0.14-0.55-0.16-0.9-0.02-0.41 0.03-0.89 0.24-1.37 0.22-0.49 0.67-0.95 1.17-1.33 0.46-0.36 0.95-0.66 1.32-0.86l0.04-0.83q-0.15-0.12-0.24-0.29-0.11-0.2-0.11-0.44 0-0.26 0.13-0.47 0.11-0.18 0.29-0.31l0.03-0.71q-0.11-0.09-0.18-0.22-0.09-0.16-0.09-0.35 0-0.22 0.1-0.39 0.09-0.14 0.22-0.24l0.04-0.75 0.26-5.76q0.01-0.12 0.13-0.13 0.12 0.02 0.13 0.13l0.26 5.76 0.03 0.75q0.14 0.1 0.22 0.24h0.01q0.1 0.17 0.1 0.39 0 0.19-0.09 0.35-0.07 0.13-0.18 0.22l0.03 0.71q0.18 0.13 0.29 0.31 0.13 0.21 0.13 0.47 0 0.24-0.11 0.44-0.09 0.18-0.24 0.29l0.04 0.83c0.36 0.2 0.86 0.5 1.32 0.86 0.5 0.38 0.95 0.84 1.17 1.33v0.01c0.21 0.48 0.26 0.95 0.24 1.36-0.02 0.35-0.09 0.67-0.16 0.9 1.57 0.9 3.5 2.12 5.23 3.55 1.77 1.46 3.35 3.14 4.13 4.9 1.85 4.22 0.64 8.36-0.02 10.06 0.49 0.08 0.86 0.5 0.86 1.01v0.24c0 0.56-0.46 1.02-1.02 1.02h-1.04v9.02h2.37v2.65h-0.91v4.02h-1.08v10.59h-1.86v33.42h-20.44v-33.42h-1.87v-10.59h-1.08v-4.02h-0.9v-2.65h2.78v-9.02h-1.04c-0.56 0-1.02-0.46-1.02-1.02v-0.24c0-0.56 0.46-1.02 1.02-1.02zm22.18 11.3v-9.02h-2.37v9.02zm-4.23 0v-9.02h-2.37v9.02zm-4.23 0v-9.02h-2.37v9.02zm-4.23 0v-9.02h-2.37v9.02zm-4.23 0v-9.02h-2.36v9.02z"/>
						<path id="&lt;Compound Path&gt;" fill-rule="evenodd" class="s1" d="m66.97 291.18h0.09c-0.39-0.99-1.08-3.4 0-5.86 0.45-1.03 1.37-2.01 2.4-2.86 1.01-0.83 2.14-1.55 3.05-2.07q-0.07-0.21-0.09-0.52-0.03-0.37 0.14-0.8c0.13-0.29 0.39-0.55 0.68-0.78 0.27-0.21 0.56-0.38 0.78-0.5l0.02-0.48q-0.09-0.07-0.14-0.17-0.07-0.12-0.07-0.26 0-0.15 0.08-0.27 0.06-0.11 0.17-0.18l0.01-0.42q-0.06-0.05-0.1-0.13-0.05-0.09-0.05-0.2 0-0.13 0.06-0.23 0.05-0.08 0.13-0.14l0.02-0.44 0.15-3.36q0.01-0.06 0.07-0.07h0.01q0.06 0.01 0.07 0.07l0.15 3.36 0.02 0.44q0.08 0.06 0.13 0.14 0.06 0.1 0.06 0.23 0 0.11-0.05 0.2-0.04 0.08-0.11 0.13l0.02 0.42q0.11 0.07 0.17 0.18 0.08 0.12 0.08 0.27 0 0.14-0.07 0.26-0.05 0.1-0.14 0.17l0.02 0.48c0.22 0.12 0.51 0.29 0.78 0.5 0.29 0.23 0.55 0.49 0.68 0.78q0.17 0.43 0.14 0.8-0.03 0.31-0.09 0.52c0.91 0.52 2.03 1.24 3.04 2.07 1.04 0.85 1.96 1.83 2.41 2.86 1.08 2.46 0.38 4.88 0 5.87 0.28 0.04 0.5 0.29 0.5 0.59v0.14c0 0.32-0.27 0.59-0.6 0.59h-0.6v5.26h1.37v1.54h-0.52v2.35h-0.63v6.18h-1.09v19.49h-11.92v-19.49h-1.09v-6.18h-0.63v-2.35h-0.53v-1.54h1.62v-5.26h-0.6c-0.33 0-0.6-0.27-0.6-0.59v-0.14c0-0.33 0.27-0.6 0.6-0.6zm12.93 6.59v-5.26h-1.38v5.26zm-2.47 0v-5.26h-1.38v5.26zm-2.46 0v-5.26h-1.39v5.26zm-2.46 0v-5.26h-1.38v5.26zm-2.47 0v-5.26h-1.38v5.26z"/>
						<path id="&lt;Path&gt;" class="s1" d="m26.46 327.33h228.28v-12.29h-228.28z"/>
						<path id="&lt;Path&gt;" class="s1" d="m47.31 279.87c-0.28 2.92-0.43 5.91-0.56 8.84q-0.19 0.13-0.31 0.33-0.14 0.24-0.14 0.53 0 0.26 0.12 0.48 0.1 0.18 0.25 0.31l-0.04 0.98q-0.25 0.17-0.4 0.42-0.17 0.29-0.18 0.65 0 0.33 0.15 0.61 0.13 0.23 0.34 0.39l-0.03 0.75c-0.39 0.17-0.66 0.46-0.72 0.79q-0.55 0.34-1.12 0.78c-0.69 0.53-1.31 1.16-1.61 1.84-0.29 0.65-0.36 1.3-0.33 1.87 0.02 0.49 0.12 0.92 0.22 1.24-9.75 2.08-20.75 14.69-12.37 26.54q0.05 0.11 0.17 0.11h16.56 16.57q0.12 0 0.16-0.11c8.39-11.85-2.61-24.46-12.36-26.54 0.1-0.32 0.19-0.75 0.22-1.24 0.03-0.57-0.05-1.22-0.33-1.87-0.3-0.68-0.93-1.31-1.61-1.84q-0.57-0.44-1.13-0.78c-0.05-0.33-0.32-0.62-0.71-0.79l-0.03-0.75q0.21-0.16 0.33-0.39 0.15-0.28 0.15-0.61 0-0.36-0.18-0.65-0.15-0.25-0.4-0.42l-0.04-0.98q0.16-0.13 0.25-0.31 0.12-0.22 0.13-0.48-0.01-0.29-0.15-0.53-0.12-0.2-0.31-0.33c-0.13-2.93-0.27-5.92-0.56-8.84z"/>
						<path id="&lt;Compound Path&gt;" fill-rule="evenodd" class="s1" d="m16.21 289.68h0.1c-0.4-1.04-1.12-3.55 0-6.11 0.47-1.07 1.43-2.09 2.51-2.98 1.05-0.87 2.22-1.61 3.17-2.16q-0.07-0.21-0.1-0.54-0.03-0.39 0.15-0.83c0.13-0.3 0.41-0.58 0.71-0.81 0.28-0.22 0.58-0.4 0.81-0.52l0.02-0.51q-0.09-0.07-0.15-0.17-0.06-0.12-0.07-0.27 0.01-0.16 0.08-0.29 0.07-0.11 0.18-0.18l0.02-0.43q-0.07-0.06-0.11-0.14-0.05-0.1-0.06-0.21 0.01-0.13 0.07-0.24 0.05-0.09 0.13-0.14l0.02-0.46 0.16-3.5q0.01-0.07 0.08-0.08 0.07 0.01 0.08 0.08l0.16 3.5 0.02 0.46q0.08 0.05 0.13 0.14 0.07 0.11 0.07 0.24 0 0.11-0.06 0.21-0.04 0.08-0.11 0.14l0.02 0.43q0.11 0.07 0.18 0.18 0.08 0.13 0.08 0.29 0 0.15-0.07 0.27-0.06 0.1-0.15 0.17l0.03 0.51c0.22 0.12 0.52 0.3 0.8 0.52 0.3 0.23 0.58 0.51 0.71 0.81v0.01q0.18 0.44 0.15 0.82-0.03 0.33-0.1 0.54c0.95 0.55 2.12 1.29 3.18 2.16 1.07 0.89 2.03 1.91 2.5 2.98 1.13 2.57 0.4 5.08 0 6.11 0.29 0.05 0.52 0.31 0.52 0.62v0.14c0 0.34-0.28 0.62-0.62 0.62h-0.63v5.48h1.43v1.61h-0.55v2.45h-0.65v6.42h-1.14v20.31h-12.41v-20.31h-1.14v-6.42h-0.65v-2.45h-0.55v-1.61h1.69v-5.48h-0.64c-0.34 0-0.62-0.28-0.62-0.62v-0.14c0-0.35 0.28-0.62 0.62-0.62zm13.48 6.86v-5.48h-1.44v5.48zm-2.57 0v-5.48h-1.44v5.48zm-2.57 0v-5.48h-1.44v5.48zm-2.57 0v-5.48h-1.44v5.48zm-2.56 0v-5.48h-1.44v5.48z"/>
					</g>
					<g id="&lt;Group&gt;">
						<path id="&lt;Path&gt;" class="s1" d="m479.36 244.85c0.49 5.08 0.74 10.27 0.97 15.37q0.33 0.23 0.53 0.57 0.25 0.41 0.26 0.91-0.01 0.46-0.21 0.85-0.17 0.31-0.44 0.54l0.07 1.69q0.43 0.29 0.69 0.73 0.31 0.51 0.32 1.13-0.01 0.57-0.27 1.06-0.22 0.4-0.58 0.68l0.06 1.31c0.67 0.3 1.14 0.8 1.24 1.37 0.62 0.39 1.3 0.85 1.96 1.35 1.18 0.92 2.27 2.02 2.79 3.2 0.5 1.14 0.62 2.27 0.58 3.26-0.05 0.84-0.22 1.59-0.39 2.14 16.94 3.61 36.06 25.54 21.49 46.13-0.05 0.11-0.16 0.19-0.29 0.19h-28.78-28.79c-0.13 0-0.24-0.08-0.29-0.19-14.57-20.59 4.55-42.52 21.49-46.13-0.17-0.55-0.34-1.3-0.39-2.14-0.04-0.99 0.08-2.12 0.58-3.26 0.52-1.18 1.61-2.28 2.8-3.2 0.65-0.5 1.33-0.96 1.96-1.35 0.09-0.57 0.56-1.07 1.23-1.37l0.06-1.31q-0.36-0.28-0.58-0.68-0.26-0.49-0.27-1.06 0.01-0.62 0.32-1.13 0.26-0.44 0.7-0.73l0.07-1.69q-0.27-0.23-0.44-0.54-0.21-0.39-0.21-0.85 0-0.5 0.25-0.91 0.2-0.34 0.53-0.57c0.23-5.1 0.48-10.29 0.98-15.37z"/>
						<path id="&lt;Path&gt;" class="s1" d="m411.49 211.7c0.7 7.13 1.05 14.39 1.37 21.55q0.46 0.31 0.75 0.79 0.35 0.58 0.35 1.29 0 0.64-0.29 1.18-0.24 0.44-0.62 0.76l0.1 2.38q0.61 0.4 0.97 1.02c0.29 0.46 0.45 1.01 0.45 1.58q-0.01 0.8-0.38 1.48-0.3 0.57-0.81 0.96l0.08 1.83c0.95 0.42 1.61 1.12 1.73 1.93 0.89 0.54 1.84 1.18 2.75 1.89 1.67 1.29 3.19 2.83 3.92 4.48 0.7 1.6 0.87 3.18 0.81 4.57-0.07 1.18-0.3 2.23-0.54 3 23.75 5.07 50.55 35.81 30.13 64.67-0.07 0.16-0.23 0.27-0.41 0.27h-40.36-40.35c-0.18 0-0.34-0.11-0.41-0.27-20.42-28.86 6.38-59.6 30.13-64.67-0.24-0.77-0.47-1.82-0.54-3-0.07-1.39 0.11-2.97 0.81-4.57 0.73-1.65 2.25-3.19 3.91-4.48 0.92-0.71 1.87-1.35 2.75-1.89 0.13-0.81 0.79-1.51 1.74-1.93l0.08-1.83q-0.51-0.39-0.81-0.96-0.37-0.68-0.38-1.48c0-0.57 0.16-1.12 0.44-1.58q0.37-0.62 0.98-1.02l0.1-2.38q-0.38-0.32-0.62-0.76-0.29-0.54-0.29-1.18 0-0.71 0.35-1.29 0.28-0.48 0.74-0.79c0.33-7.16 0.68-14.42 1.37-21.55z"/>
						<path id="&lt;Compound Path&gt;" fill-rule="evenodd" class="s1" d="m527.77 265.35c0.56 0 1.02 0.46 1.02 1.02v0.24c0 0.56-0.46 1.02-1.02 1.02h-1.04v9.02h2.78v2.65h-0.9v4.02h-1.08v10.59h-1.87v33.42h-20.44v-33.42h-1.86v-10.59h-1.08v-4.02h-0.91v-2.65h2.37v-9.02h-1.04c-0.56 0-1.02-0.46-1.02-1.02v-0.24c0-0.51 0.37-0.93 0.86-1.01-0.66-1.7-1.87-5.84-0.02-10.06 0.78-1.76 2.36-3.44 4.13-4.9 1.73-1.43 3.66-2.65 5.23-3.55-0.07-0.23-0.14-0.55-0.16-0.9-0.02-0.41 0.03-0.88 0.24-1.36v-0.01c0.22-0.49 0.67-0.95 1.17-1.33 0.46-0.36 0.96-0.66 1.32-0.86l0.04-0.83q-0.15-0.11-0.24-0.29-0.11-0.2-0.11-0.44 0-0.26 0.13-0.47 0.11-0.18 0.29-0.31l0.03-0.71q-0.11-0.09-0.18-0.22-0.09-0.16-0.09-0.35 0-0.22 0.1-0.39 0.09-0.14 0.23-0.24l0.03-0.75 0.26-5.76q0.01-0.11 0.13-0.13 0.12 0.01 0.13 0.13l0.26 5.76 0.03 0.75q0.14 0.1 0.23 0.24 0.1 0.17 0.1 0.39 0 0.19-0.09 0.35-0.07 0.13-0.18 0.22l0.03 0.71q0.18 0.13 0.29 0.31 0.13 0.21 0.13 0.47 0 0.24-0.11 0.44-0.09 0.17-0.24 0.29l0.04 0.83c0.37 0.2 0.86 0.5 1.32 0.86 0.5 0.38 0.95 0.84 1.17 1.33 0.21 0.48 0.26 0.96 0.24 1.37-0.02 0.35-0.09 0.67-0.16 0.9 1.57 0.9 3.5 2.12 5.23 3.55 1.78 1.46 3.35 3.14 4.13 4.9 1.85 4.21 0.65 8.34-0.01 10.05zm-22.18 11.3h2.37v-9.02h-2.37zm4.23 0h2.37v-9.01h-2.37zm4.23 0h2.37v-9.02h-2.37zm4.23 0h2.37v-9.02h-2.37zm6.6 0v-9.01h-2.37v9.01z"/>
						<path id="&lt;Compound Path&gt;" fill-rule="evenodd" class="s1" d="m463.59 265.35c0.56 0 1.02 0.46 1.02 1.02v0.24c0 0.56-0.46 1.02-1.02 1.02h-1.04v9.02h2.78v2.65h-0.9v4.02h-1.08v10.59h-1.87v33.42h-20.44v-33.42h-1.86v-10.59h-1.09v-4.02h-0.9v-2.65h2.36v-9.02h-1.03c-0.57 0-1.02-0.46-1.02-1.02v-0.24c0-0.51 0.37-0.93 0.85-1.01-0.66-1.7-1.86-5.84-0.01-10.06 0.78-1.76 2.35-3.44 4.13-4.9 1.73-1.43 3.66-2.65 5.23-3.55-0.07-0.23-0.14-0.55-0.16-0.9-0.02-0.41 0.03-0.88 0.24-1.36v-0.01c0.21-0.49 0.67-0.95 1.17-1.33 0.46-0.36 0.96-0.66 1.32-0.86l0.04-0.83q-0.15-0.11-0.24-0.29-0.11-0.2-0.11-0.44 0-0.26 0.13-0.47 0.11-0.18 0.29-0.31l0.03-0.71q-0.11-0.09-0.18-0.22-0.09-0.16-0.09-0.35 0-0.22 0.1-0.39 0.09-0.14 0.22-0.24l0.04-0.75 0.26-5.76q0.01-0.11 0.12-0.13h0.01q0.12 0.01 0.13 0.13l0.26 5.76 0.03 0.75q0.14 0.1 0.23 0.24 0.1 0.17 0.1 0.39 0 0.19-0.09 0.35-0.07 0.13-0.18 0.22l0.03 0.71q0.18 0.13 0.29 0.31 0.13 0.21 0.13 0.47 0 0.24-0.11 0.44-0.09 0.17-0.24 0.29l0.03 0.83c0.37 0.2 0.87 0.5 1.33 0.86 0.5 0.38 0.95 0.84 1.17 1.33 0.21 0.48 0.26 0.96 0.24 1.37-0.02 0.35-0.09 0.67-0.16 0.9 1.57 0.9 3.49 2.12 5.23 3.55 1.77 1.46 3.35 3.14 4.12 4.9 1.85 4.21 0.66 8.34 0 10.05zm-22.18 11.3h2.37v-9.02h-2.37zm4.23 0h2.37v-9.01h-2.37zm4.23 0h2.37v-9.02h-2.37zm4.23 0h2.37v-9.02h-2.37zm6.59 0v-9.01h-2.37v9.01z"/>
						<path id="&lt;Compound Path&gt;" fill-rule="evenodd" class="s1" d="m549.19 291.18c0.33 0 0.6 0.27 0.6 0.6v0.14c0 0.32-0.27 0.59-0.6 0.59h-0.6v5.26h1.62v1.54h-0.53v2.35h-0.63v6.18h-1.09v19.49h-11.92v-19.49h-1.09v-6.18h-0.63v-2.35h-0.53v-1.54h1.38v-5.26h-0.6c-0.33 0-0.6-0.27-0.6-0.59v-0.14c0-0.3 0.22-0.55 0.5-0.59-0.38-0.99-1.09-3.41 0-5.87 0.45-1.03 1.37-2.01 2.4-2.86 1.01-0.83 2.14-1.55 3.05-2.07q-0.07-0.21-0.09-0.52-0.03-0.37 0.14-0.8c0.12-0.29 0.39-0.55 0.68-0.78 0.27-0.21 0.56-0.38 0.77-0.5l0.03-0.48q-0.09-0.07-0.15-0.17-0.06-0.12-0.06-0.26 0-0.15 0.08-0.27 0.06-0.11 0.17-0.18l0.01-0.42q-0.06-0.05-0.1-0.13-0.05-0.09-0.05-0.2 0-0.13 0.06-0.23 0.05-0.08 0.13-0.14l0.02-0.44 0.15-3.36q0-0.06 0.07-0.07 0.07 0.01 0.08 0.07l0.15 3.36 0.02 0.44q0.08 0.06 0.13 0.14 0.06 0.1 0.06 0.23 0 0.11-0.05 0.2-0.04 0.08-0.11 0.13l0.02 0.42q0.11 0.07 0.17 0.18 0.08 0.12 0.08 0.27 0 0.14-0.07 0.26-0.05 0.1-0.14 0.17l0.02 0.48c0.22 0.12 0.51 0.29 0.78 0.5 0.29 0.23 0.55 0.49 0.68 0.78q0.17 0.43 0.14 0.8-0.03 0.31-0.1 0.52c0.92 0.52 2.04 1.24 3.05 2.07 1.04 0.85 1.96 1.83 2.41 2.86 1.08 2.46 0.38 4.87 0 5.86zm-12.94 6.59h1.38v-5.26h-1.38zm2.47 0h1.38v-5.26h-1.38zm2.46 0h1.39v-5.26h-1.39zm2.47 0h1.38v-5.25h-1.38zm3.85 0v-5.26h-1.38v5.26z"/>
						<path id="&lt;Path&gt;" class="s1" d="m589.7 327.33h-228.28v-12.29h228.28z"/>
						<path id="&lt;Path&gt;" class="s1" d="m568.84 279.87c0.29 2.92 0.44 5.91 0.57 8.84q0.19 0.13 0.3 0.33 0.14 0.24 0.15 0.53-0.01 0.26-0.12 0.48-0.1 0.18-0.26 0.31l0.04 0.98q0.25 0.17 0.4 0.42 0.18 0.29 0.19 0.65-0.01 0.33-0.16 0.61-0.12 0.23-0.33 0.39l0.03 0.75c0.39 0.17 0.66 0.46 0.71 0.79q0.56 0.34 1.13 0.78c0.68 0.53 1.31 1.16 1.61 1.84 0.29 0.65 0.36 1.3 0.33 1.87-0.03 0.49-0.12 0.92-0.22 1.24 9.75 2.08 20.75 14.69 12.37 26.54q-0.05 0.11-0.17 0.11h-16.57-16.56q-0.12 0-0.17-0.11c-8.38-11.85 2.62-24.46 12.37-26.54-0.1-0.32-0.2-0.75-0.22-1.24-0.03-0.57 0.04-1.22 0.33-1.87 0.3-0.68 0.92-1.31 1.61-1.84q0.57-0.44 1.13-0.78c0.05-0.33 0.32-0.62 0.71-0.79l0.03-0.75q-0.21-0.16-0.33-0.39-0.15-0.28-0.16-0.61 0.01-0.36 0.18-0.65 0.15-0.25 0.41-0.42l0.04-0.98q-0.16-0.13-0.26-0.31-0.12-0.22-0.12-0.48 0-0.29 0.15-0.53 0.11-0.2 0.3-0.33c0.13-2.93 0.28-5.92 0.56-8.84z"/>
						<path id="&lt;Compound Path&gt;" fill-rule="evenodd" class="s1" d="m599.94 289.68c0.34 0 0.62 0.27 0.62 0.62v0.14c0 0.34-0.28 0.62-0.62 0.62h-0.63v5.48h1.69v1.61h-0.55v2.45h-0.66v6.42h-1.13v20.31h-12.42v-20.31h-1.13v-6.42h-0.66v-2.45h-0.54v-1.61h1.43v-5.48h-0.63c-0.34 0-0.62-0.28-0.62-0.62v-0.14c0-0.31 0.23-0.57 0.52-0.62-0.4-1.03-1.13-3.54-0.01-6.11 0.48-1.07 1.43-2.09 2.51-2.98 1.05-0.87 2.23-1.61 3.18-2.16q-0.07-0.21-0.1-0.54-0.03-0.38 0.15-0.82v-0.01c0.13-0.3 0.41-0.58 0.71-0.81 0.28-0.22 0.58-0.4 0.8-0.52l0.02-0.51q-0.09-0.07-0.14-0.17-0.07-0.12-0.07-0.27 0-0.16 0.08-0.29 0.07-0.11 0.18-0.18l0.02-0.43q-0.07-0.06-0.12-0.14-0.05-0.1-0.05-0.21 0-0.13 0.06-0.24 0.06-0.09 0.14-0.14l0.02-0.46 0.16-3.5q0.01-0.07 0.07-0.08h0.01q0.07 0.01 0.08 0.08l0.15 3.5 0.02 0.46q0.09 0.05 0.14 0.14 0.06 0.11 0.06 0.24 0 0.11-0.05 0.21-0.04 0.08-0.11 0.14l0.02 0.43q0.11 0.07 0.17 0.18 0.08 0.13 0.08 0.29 0 0.15-0.06 0.27-0.06 0.1-0.15 0.17l0.02 0.51c0.22 0.12 0.53 0.3 0.81 0.52 0.3 0.23 0.57 0.51 0.71 0.81q0.17 0.44 0.14 0.83-0.02 0.33-0.1 0.54c0.96 0.55 2.13 1.29 3.18 2.16 1.08 0.89 2.04 1.91 2.51 2.98 1.12 2.56 0.4 5.07-0.01 6.11zm-13.47 6.86h1.44v-5.48h-1.44zm2.57 0h1.44v-5.48h-1.44zm2.57 0h1.44v-5.47h-1.44zm2.57 0h1.44v-5.48h-1.44zm4.01 0v-5.48h-1.44v5.48z"/>
					</g>
				</g>
				<path id="&lt;Compound Path&gt;" fill-rule="evenodd" class="s2" d="m547.48 288.11v-6.98h0.81c0.43 0 0.79-0.35 0.79-0.79v-0.19c0-0.43-0.36-0.79-0.79-0.79h-0.13c0.52-1.32 1.44-4.51 0.01-7.77-0.61-1.37-1.82-2.67-3.2-3.8-1.34-1.1-2.83-2.05-4.04-2.74q0.09-0.28 0.12-0.7c0.02-0.32-0.02-0.68-0.18-1.06-0.17-0.38-0.52-0.73-0.91-1.03-0.36-0.28-0.74-0.51-1.03-0.66l-0.02-0.64q0.11-0.1 0.18-0.23 0.09-0.15 0.09-0.34 0-0.2-0.1-0.37-0.09-0.14-0.23-0.23l-0.02-0.55q0.09-0.07 0.14-0.18 0.07-0.12 0.07-0.27 0-0.16-0.08-0.3-0.07-0.11-0.17-0.18l-0.03-0.58-0.2-4.46q-0.01-0.09-0.1-0.1h-0.01q-0.08 0.01-0.09 0.1l-0.2 4.46-0.03 0.58q-0.11 0.07-0.17 0.18-0.08 0.14-0.08 0.3 0 0.15 0.07 0.27 0.05 0.11 0.14 0.18l-0.03 0.55q-0.14 0.09-0.22 0.23-0.1 0.17-0.1 0.37 0 0.19 0.08 0.34 0.07 0.13 0.19 0.23l-0.03 0.64c-0.28 0.15-0.67 0.38-1.02 0.66-0.39 0.3-0.74 0.65-0.91 1.03v0.01c-0.16 0.37-0.2 0.73-0.18 1.05q0.03 0.42 0.12 0.7c-1.21 0.69-2.71 1.64-4.05 2.74-1.37 1.13-2.59 2.43-3.19 3.8-1.44 3.27-0.5 6.47 0.01 7.78-0.38 0.06-0.67 0.39-0.67 0.78v0.19c0 0.44 0.36 0.79 0.79 0.79h0.81v6.98h-1.83v2.05h0.7v3.11h0.83v8.19h1.45v4.27c-3.71-6.29-10.36-11.02-16.61-12.35 0.13-0.41 0.25-0.95 0.29-1.57 0.03-0.73-0.06-1.56-0.43-2.39-0.38-0.86-1.17-1.67-2.04-2.34q-0.73-0.56-1.44-0.99c-0.07-0.43-0.41-0.79-0.91-1.01l-0.04-0.96q0.27-0.2 0.43-0.5 0.19-0.35 0.19-0.77 0-0.46-0.23-0.83-0.19-0.33-0.51-0.54l-0.05-1.24q0.19-0.17 0.32-0.4 0.15-0.28 0.15-0.61 0-0.38-0.18-0.68-0.15-0.25-0.39-0.41c-0.17-3.74-0.35-7.54-0.72-11.27-0.36 3.73-0.54 7.53-0.71 11.27q-0.24 0.16-0.39 0.41-0.18 0.3-0.19 0.68 0.01 0.33 0.16 0.61 0.12 0.23 0.32 0.4l-0.05 1.24q-0.32 0.21-0.51 0.54-0.23 0.37-0.23 0.83 0 0.42 0.19 0.77 0.16 0.3 0.43 0.5l-0.04 0.96c-0.5 0.22-0.84 0.58-0.91 1.01q-0.71 0.43-1.44 0.99c-0.87 0.67-1.67 1.48-2.04 2.34-0.37 0.83-0.46 1.66-0.43 2.39 0.04 0.62 0.16 1.16 0.28 1.57-8.09 1.72-16.86 9.15-19.03 18.3h-2.01v-9.18h1.39v-7.86h0.8v-3h0.67v-1.96h-2.06v-6.7h0.77c0.42 0 0.76-0.34 0.76-0.76v-0.18c0-0.42-0.34-0.76-0.76-0.76h-0.12c0.49-1.27 1.38-4.33 0-7.46-0.58-1.32-1.74-2.56-3.06-3.65-1.29-1.06-2.72-1.97-3.89-2.64q0.09-0.26 0.12-0.66c0.02-0.31-0.02-0.66-0.18-1.02-0.16-0.36-0.5-0.7-0.87-0.99-0.34-0.27-0.71-0.49-0.98-0.64l-0.03-0.61q0.12-0.09 0.18-0.22 0.08-0.15 0.09-0.32-0.01-0.2-0.1-0.36-0.08-0.13-0.22-0.22l-0.02-0.53q0.08-0.07 0.14-0.17 0.06-0.12 0.06-0.26 0-0.16-0.08-0.29-0.06-0.1-0.16-0.17l-0.03-0.56-0.19-4.28q-0.01-0.09-0.1-0.1-0.08 0.01-0.1 0.1l-0.19 4.28-0.02 0.56q-0.1 0.07-0.17 0.17-0.07 0.13-0.08 0.29 0.01 0.14 0.07 0.26 0.05 0.1 0.14 0.17l-0.03 0.53q-0.13 0.09-0.21 0.22-0.1 0.16-0.1 0.36 0 0.17 0.08 0.32 0.07 0.13 0.18 0.22l-0.03 0.61c-0.27 0.15-0.64 0.37-0.98 0.64-0.37 0.29-0.71 0.63-0.87 0.99v0.01c-0.15 0.35-0.19 0.7-0.18 1.01q0.03 0.4 0.12 0.66c-1.16 0.67-2.6 1.58-3.88 2.64-1.32 1.09-2.49 2.33-3.07 3.65-1.38 3.13-0.48 6.21 0.01 7.47-0.36 0.06-0.64 0.37-0.64 0.75v0.18c0 0.42 0.34 0.76 0.76 0.76h0.77v6.7h-1.75v1.96h0.67v3h0.8v7.86h1.39v9.18h-13.22v-26.93h2.37v-13.48h1.38v-5.13h1.15v-3.37h-3.54v-11.48h1.32c0.72 0 1.31-0.59 1.31-1.31v-0.3c0-0.72-0.59-1.3-1.31-1.3h-0.2c0.84-2.18 2.36-7.44 0.01-12.8-1-2.25-3-4.39-5.26-6.25-2.21-1.82-4.66-3.38-6.66-4.52 0.09-0.3 0.18-0.69 0.21-1.14 0.02-0.53-0.05-1.13-0.31-1.74-0.28-0.63-0.86-1.21-1.49-1.71-0.59-0.45-1.22-0.83-1.69-1.09l-0.05-1.05q0.2-0.15 0.31-0.37 0.14-0.26 0.14-0.56 0-0.34-0.16-0.61-0.14-0.23-0.37-0.38l-0.04-0.91q0.14-0.12 0.23-0.29 0.11-0.2 0.11-0.45 0-0.27-0.13-0.49-0.11-0.18-0.28-0.3l-0.05-0.96-0.33-7.34c0-0.08-0.07-0.16-0.16-0.16h-0.01c-0.09 0.01-0.16 0.08-0.16 0.16l-0.33 7.34-0.04 0.96q-0.18 0.12-0.29 0.3-0.13 0.22-0.13 0.49 0 0.25 0.11 0.45 0.09 0.17 0.24 0.29l-0.04 0.91q-0.23 0.15-0.37 0.38-0.17 0.27-0.17 0.61 0 0.3 0.14 0.56 0.12 0.22 0.31 0.37l-0.05 1.05c-0.47 0.26-1.1 0.64-1.69 1.09-0.63 0.5-1.21 1.08-1.48 1.71l-0.01 0.01c-0.26 0.6-0.33 1.2-0.3 1.73 0.02 0.45 0.11 0.84 0.2 1.14-1.99 1.14-4.45 2.7-6.66 4.52-2.26 1.86-4.26 4-5.26 6.25-2.36 5.38-0.82 10.65 0.02 12.81-0.62 0.1-1.1 0.64-1.1 1.29v0.3c0 0.72 0.59 1.31 1.31 1.31h1.32v11.48h-3.01v3.37h1.15v5.13h1.38v8.6c-6.14-5.84-13.68-10-20.92-11.55 0.22-0.7 0.44-1.65 0.5-2.72 0.05-1.27-0.1-2.7-0.74-4.16-0.66-1.49-2.05-2.89-3.56-4.07-0.83-0.64-1.7-1.22-2.5-1.72-0.11-0.73-0.71-1.37-1.57-1.74l-0.07-1.67q0.46-0.35 0.73-0.87 0.34-0.62 0.34-1.35-0.01-0.79-0.4-1.44-0.33-0.56-0.88-0.92l-0.1-2.16q0.35-0.29 0.56-0.7 0.27-0.48 0.27-1.07 0-0.64-0.32-1.17-0.26-0.43-0.67-0.72c-0.3-6.5-0.62-13.1-1.25-19.58-0.63 6.48-0.95 13.08-1.24 19.58q-0.42 0.29-0.68 0.72-0.31 0.53-0.32 1.17 0.01 0.59 0.27 1.07 0.21 0.41 0.56 0.7l-0.09 2.16q-0.56 0.36-0.89 0.92-0.39 0.65-0.4 1.44 0.01 0.73 0.34 1.35 0.28 0.52 0.74 0.87l-0.08 1.67c-0.85 0.37-1.45 1.01-1.57 1.74-0.8 0.5-1.67 1.08-2.5 1.72-1.51 1.18-2.9 2.58-3.55 4.07-0.64 1.46-0.8 2.89-0.74 4.16 0.06 1.07 0.27 2.02 0.49 2.72-3.57 0.76-7.22 2.17-10.73 4.09v-1.14h1.38v-5.13h1.14v-3.37h-3.53v-11.48h1.32c0.71 0 1.3-0.59 1.3-1.31v-0.3c0-0.72-0.59-1.3-1.3-1.3h-0.21c0.85-2.18 2.37-7.44 0.01-12.8-0.99-2.25-3-4.39-5.26-6.25-2.21-1.82-4.66-3.38-6.66-4.52 0.09-0.3 0.18-0.69 0.21-1.14 0.02-0.53-0.04-1.13-0.31-1.74-0.27-0.63-0.86-1.21-1.49-1.71-0.59-0.45-1.22-0.83-1.69-1.09l-0.04-1.05q0.19-0.15 0.31-0.37 0.13-0.26 0.14-0.56-0.01-0.34-0.17-0.61-0.14-0.23-0.37-0.38l-0.04-0.91q0.14-0.12 0.23-0.29 0.11-0.2 0.12-0.45-0.01-0.27-0.14-0.49-0.11-0.18-0.28-0.3l-0.04-0.96-0.33-7.34c-0.01-0.08-0.08-0.16-0.17-0.16h-0.01c-0.09 0.01-0.15 0.08-0.16 0.16l-0.33 7.34-0.04 0.96q-0.18 0.12-0.28 0.3-0.13 0.22-0.14 0.49 0 0.25 0.11 0.45 0.09 0.17 0.24 0.29l-0.04 0.91q-0.23 0.15-0.37 0.38-0.16 0.27-0.17 0.61 0.01 0.3 0.14 0.56 0.12 0.22 0.31 0.37l-0.05 1.05c-0.46 0.26-1.1 0.64-1.68 1.09-0.64 0.5-1.22 1.08-1.49 1.71v0.01c-0.27 0.6-0.34 1.2-0.31 1.73 0.02 0.45 0.11 0.84 0.2 1.14-1.99 1.14-4.45 2.7-6.65 4.52-2.27 1.86-4.27 4-5.26 6.25-2.36 5.38-0.83 10.65 0.01 12.81-0.62 0.1-1.09 0.64-1.09 1.29v0.3c0 0.72 0.58 1.31 1.3 1.31h1.32v3.81c-7.07-5.19-14.92-8.87-22.52-10.49 0.31-0.99 0.61-2.32 0.69-3.82 0.09-1.78-0.13-3.79-1.03-5.83-0.92-2.1-2.87-4.06-4.98-5.7-1.17-0.91-2.38-1.72-3.51-2.41-0.16-1.03-1-1.92-2.2-2.45l-0.1-2.34q0.64-0.5 1.03-1.22 0.47-0.87 0.48-1.89c0-0.73-0.21-1.42-0.57-2.02q-0.46-0.78-1.24-1.29l-0.13-3.03q0.48-0.41 0.79-0.97 0.36-0.69 0.37-1.5c0-0.6-0.16-1.17-0.45-1.64q-0.36-0.61-0.95-1.01c-0.37-8.38-0.8-16.87-1.55-25.23 1.1 0.24 2.28 0.2 3.42-0.2 1.08-0.39 1.98-1.04 2.67-1.85q-0.55 0.36-1.2 0.59c-1.77 0.63-3.66 0.29-5.08-0.74q0-0.01 0-0.03 0 0.02 0 0.03c-0.88-0.64-1.58-1.53-1.97-2.63-1.01-2.88 0.5-6.04 3.38-7.05q0.65-0.23 1.31-0.29c-1.05-0.2-2.17-0.14-3.25 0.24-3.24 1.14-4.94 4.69-3.79 7.93 0.69 1.97 2.27 3.36 4.14 3.9-0.76 8.4-1.19 16.92-1.56 25.33q-0.59 0.4-0.95 1.01c-0.29 0.47-0.45 1.04-0.45 1.64q0 0.81 0.37 1.5 0.31 0.56 0.79 0.97l-0.13 3.03q-0.78 0.51-1.24 1.29c-0.36 0.6-0.57 1.29-0.57 2.02q0.01 1.02 0.48 1.89 0.39 0.72 1.03 1.22l-0.1 2.34c-1.2 0.53-2.04 1.42-2.2 2.45-1.13 0.69-2.34 1.5-3.51 2.41-2.11 1.64-4.06 3.6-4.98 5.7-0.9 2.04-1.12 4.05-1.03 5.83 0.08 1.5 0.38 2.83 0.68 3.82-7.48 1.59-15.2 5.19-22.19 10.26v-3.58h1.32c0.71 0 1.3-0.59 1.3-1.31v-0.3c0-0.65-0.48-1.19-1.09-1.29 0.84-2.16 2.37-7.43 0.01-12.81-0.99-2.25-3-4.39-5.26-6.25-2.2-1.82-4.66-3.38-6.66-4.52 0.09-0.3 0.18-0.69 0.21-1.14 0.02-0.53-0.04-1.13-0.31-1.73v-0.01c-0.27-0.63-0.86-1.21-1.49-1.71-0.58-0.45-1.22-0.83-1.69-1.09l-0.04-1.05q0.19-0.15 0.3-0.37 0.14-0.26 0.14-0.56 0-0.34-0.16-0.61-0.14-0.23-0.37-0.38l-0.04-0.91q0.14-0.12 0.23-0.29 0.11-0.2 0.11-0.45 0-0.27-0.13-0.49-0.11-0.18-0.28-0.3l-0.04-0.96-0.33-7.34c-0.01-0.08-0.08-0.15-0.16-0.16h-0.01c-0.09 0-0.17 0.08-0.17 0.16l-0.33 7.34-0.04 0.96q-0.18 0.12-0.29 0.3-0.13 0.22-0.13 0.49 0 0.25 0.11 0.45 0.09 0.17 0.24 0.29l-0.04 0.91q-0.23 0.15-0.37 0.38-0.17 0.27-0.17 0.61 0 0.3 0.14 0.56 0.12 0.22 0.31 0.37l-0.04 1.05c-0.48 0.26-1.11 0.64-1.69 1.09-0.64 0.5-1.22 1.08-1.49 1.71-0.27 0.61-0.34 1.21-0.31 1.74 0.02 0.45 0.11 0.84 0.2 1.14-1.99 1.14-4.45 2.7-6.66 4.52-2.26 1.86-4.26 4-5.25 6.25-2.36 5.36-0.84 10.62 0 12.8h-0.2c-0.72 0-1.3 0.58-1.3 1.3v0.3c0 0.72 0.58 1.31 1.3 1.31h1.32v11.48h-3.54v3.37h1.15v5.13h1.38v1.14c-3.52-1.92-7.16-3.33-10.73-4.09 0.22-0.7 0.43-1.65 0.49-2.72 0.06-1.27-0.1-2.7-0.74-4.16-0.66-1.49-2.04-2.89-3.55-4.07-0.83-0.64-1.7-1.22-2.5-1.72-0.12-0.73-0.72-1.37-1.58-1.74l-0.07-1.67q0.46-0.35 0.74-0.87 0.33-0.62 0.34-1.35-0.01-0.79-0.4-1.44-0.34-0.56-0.89-0.92l-0.09-2.16q0.34-0.29 0.56-0.7 0.26-0.48 0.27-1.07-0.01-0.64-0.32-1.17-0.26-0.43-0.68-0.72c-0.29-6.5-0.61-13.1-1.24-19.58-0.64 6.48-0.96 13.08-1.25 19.58q-0.42 0.29-0.68 0.72-0.31 0.53-0.32 1.17 0.01 0.59 0.27 1.07 0.22 0.41 0.56 0.7l-0.09 2.16q-0.55 0.36-0.88 0.92-0.4 0.65-0.41 1.44 0.01 0.73 0.34 1.35 0.28 0.52 0.74 0.87l-0.07 1.67c-0.86 0.37-1.46 1.01-1.58 1.74-0.8 0.5-1.66 1.08-2.49 1.72-1.52 1.18-2.9 2.58-3.56 4.07-0.64 1.46-0.8 2.89-0.74 4.16 0.06 1.07 0.28 2.02 0.49 2.72-7.23 1.55-14.77 5.71-20.91 11.55v-8.6h1.38v-5.13h1.15v-3.37h-3.01v-11.48h1.32c0.72 0 1.3-0.59 1.3-1.31v-0.3c0-0.65-0.47-1.19-1.09-1.29 0.84-2.16 2.37-7.43 0.01-12.81-0.99-2.25-2.99-4.39-5.25-6.25-2.21-1.82-4.67-3.38-6.66-4.52 0.09-0.3 0.18-0.69 0.2-1.14 0.03-0.53-0.04-1.13-0.31-1.73v-0.01c-0.27-0.63-0.85-1.21-1.49-1.71-0.58-0.45-1.22-0.83-1.68-1.09l-0.05-1.05q0.19-0.15 0.31-0.37 0.14-0.26 0.14-0.56 0-0.34-0.17-0.61-0.14-0.23-0.37-0.38l-0.04-0.91q0.15-0.12 0.24-0.29 0.11-0.2 0.11-0.45 0-0.27-0.13-0.49h-0.01q-0.1-0.18-0.28-0.3l-0.04-0.96-0.33-7.34c0-0.08-0.07-0.15-0.16-0.16h-0.01c-0.09 0-0.16 0.08-0.17 0.16l-0.33 7.34-0.04 0.96q-0.17 0.12-0.28 0.3-0.13 0.22-0.14 0.49 0.01 0.25 0.12 0.45 0.09 0.17 0.23 0.29l-0.04 0.91q-0.23 0.15-0.37 0.38-0.16 0.27-0.17 0.61 0.01 0.3 0.15 0.56 0.11 0.22 0.3 0.37l-0.04 1.05c-0.47 0.26-1.1 0.64-1.69 1.09-0.63 0.5-1.21 1.08-1.49 1.71-0.27 0.61-0.33 1.21-0.31 1.74 0.03 0.45 0.12 0.84 0.21 1.14-2 1.14-4.45 2.7-6.66 4.52-2.26 1.86-4.27 4-5.26 6.25-2.36 5.36-0.84 10.62 0.01 12.8h-0.21c-0.71 0-1.3 0.58-1.3 1.3v0.3c0 0.72 0.59 1.31 1.3 1.31h1.32v11.48h-3.53v3.37h1.14v5.13h1.38v13.48h2.38v26.93h-13.22v-9.18h1.39v-7.86h0.8v-3h0.67v-1.96h-1.75v-6.7h0.77c0.41 0 0.76-0.34 0.76-0.76v-0.18c0-0.38-0.28-0.69-0.64-0.75 0.49-1.26 1.38-4.34 0.01-7.47-0.58-1.32-1.75-2.56-3.07-3.65-1.29-1.06-2.72-1.97-3.88-2.64q0.08-0.26 0.11-0.66c0.02-0.31-0.02-0.66-0.17-1.01l-0.01-0.01c-0.15-0.36-0.49-0.7-0.86-0.99-0.34-0.27-0.71-0.49-0.99-0.64l-0.03-0.61q0.12-0.09 0.18-0.22 0.09-0.15 0.09-0.32-0.01-0.2-0.1-0.36-0.08-0.13-0.22-0.22l-0.02-0.53q0.09-0.07 0.14-0.17 0.06-0.12 0.06-0.26 0-0.16-0.07-0.29h-0.01q-0.06-0.1-0.16-0.17l-0.02-0.56-0.2-4.28q-0.01-0.09-0.09-0.1h-0.01q-0.08 0.01-0.09 0.1l-0.2 4.28-0.02 0.56q-0.1 0.07-0.17 0.17-0.07 0.13-0.07 0.29 0 0.14 0.06 0.26 0.05 0.1 0.14 0.17l-0.02 0.53q-0.14 0.09-0.22 0.22-0.1 0.16-0.1 0.36 0 0.17 0.08 0.32 0.07 0.13 0.18 0.22l-0.02 0.61c-0.28 0.15-0.64 0.37-0.99 0.64-0.37 0.29-0.71 0.63-0.87 0.99-0.15 0.36-0.19 0.71-0.18 1.02q0.03 0.4 0.12 0.66c-1.16 0.67-2.59 1.58-3.88 2.64-1.32 1.09-2.49 2.33-3.07 3.65-1.37 3.13-0.48 6.19 0.01 7.46h-0.12c-0.42 0-0.76 0.34-0.76 0.76v0.18c0 0.42 0.34 0.76 0.76 0.76h0.77v6.7h-2.06v1.96h0.67v3h0.8v7.86h1.38v9.18h-2.01c-2.17-9.15-10.93-16.58-19.03-18.3 0.13-0.41 0.25-0.95 0.29-1.57 0.03-0.73-0.06-1.56-0.43-2.39-0.38-0.86-1.17-1.67-2.04-2.34q-0.74-0.56-1.44-0.99c-0.07-0.43-0.41-0.79-0.91-1.01l-0.04-0.96q0.27-0.2 0.42-0.5 0.2-0.35 0.2-0.77-0.01-0.46-0.23-0.83-0.19-0.33-0.51-0.54l-0.05-1.24q0.19-0.17 0.32-0.4 0.15-0.28 0.15-0.61 0-0.38-0.18-0.68-0.15-0.25-0.39-0.41c-0.17-3.74-0.35-7.54-0.72-11.27-0.36 3.73-0.55 7.53-0.71 11.27q-0.24 0.16-0.39 0.41-0.18 0.3-0.19 0.68 0.01 0.33 0.16 0.61 0.12 0.23 0.32 0.4l-0.05 1.24q-0.32 0.21-0.51 0.54-0.23 0.37-0.23 0.83 0 0.42 0.19 0.77 0.16 0.3 0.43 0.5l-0.05 0.96c-0.49 0.22-0.83 0.58-0.9 1.01q-0.71 0.43-1.44 0.99c-0.87 0.67-1.67 1.48-2.05 2.34-0.36 0.83-0.45 1.66-0.42 2.39 0.03 0.62 0.16 1.16 0.28 1.57-6.24 1.33-12.89 6.06-16.6 12.35v-4.27h1.44v-8.19h0.84v-3.11h0.7v-2.05h-1.83v-6.98h0.8c0.44 0 0.79-0.35 0.79-0.79v-0.19c0-0.39-0.28-0.72-0.66-0.78 0.51-1.31 1.44-4.51 0.01-7.78-0.6-1.37-1.82-2.67-3.2-3.8-1.34-1.1-2.83-2.05-4.04-2.74q0.09-0.28 0.12-0.7c0.02-0.32-0.02-0.68-0.18-1.05v-0.01c-0.17-0.38-0.53-0.73-0.91-1.03-0.35-0.28-0.74-0.51-1.02-0.66l-0.03-0.64q0.11-0.1 0.18-0.23 0.09-0.15 0.09-0.34 0-0.2-0.1-0.37-0.09-0.14-0.23-0.23l-0.02-0.55q0.09-0.07 0.14-0.18 0.07-0.12 0.07-0.27 0-0.16-0.08-0.3-0.07-0.11-0.17-0.18l-0.03-0.58-0.2-4.46q-0.01-0.09-0.1-0.1-0.09 0.01-0.1 0.1l-0.2 4.46-0.03 0.58q-0.11 0.07-0.17 0.18-0.08 0.14-0.08 0.3 0 0.15 0.07 0.27 0.05 0.11 0.14 0.18l-0.03 0.55q-0.14 0.09-0.22 0.23-0.1 0.17-0.1 0.37 0 0.19 0.08 0.34 0.07 0.13 0.19 0.23l-0.03 0.64c-0.28 0.15-0.67 0.38-1.02 0.66-0.39 0.3-0.74 0.65-0.91 1.03-0.16 0.38-0.2 0.74-0.19 1.06q0.04 0.42 0.13 0.7c-1.21 0.69-2.7 1.64-4.05 2.74-1.37 1.13-2.59 2.43-3.19 3.8-1.43 3.26-0.51 6.45 0 7.77h-0.12c-0.43 0-0.79 0.36-0.79 0.79v0.19c0 0.44 0.36 0.79 0.79 0.79h0.8v6.98h-2.15v2.05h0.7v3.11h0.84v8.19h1.44v25.87h11.41 4.41 1.06 21.1 21.1 5.5 15.19 13.22 22.32 3.72 32.95 22.76 0.21 12.07 1.62 12.14 37.64 37.95 12.15 1.3 12.39 0.2 22.77 32.95 3.72 22.32 13.22 15.18 5.51 21.09 21.1 1.07 4.4 11.42v-25.87h1.44v-8.19h0.84v-3.11h0.69v-2.05zm-67.75-5.13h1.76v6.7h-1.76zm-3.14 0h1.76v6.7h-1.76zm-3.15 0h1.76v6.7h-1.76zm-3.14 0h1.76v6.69h-1.76zm-3.14 0h1.76v6.7h-1.76zm-319.93 0h1.77v6.7h-1.77zm-3.14 0h1.76v6.7h-1.76zm-3.14 0h1.76v6.7h-1.76zm-3.14 0h1.76v6.7h-1.76zm-3.14 0h1.76v6.7h-1.76zm-62.73 5.13h-1.83v-6.98h1.83zm3.28 0h-1.84v-6.98h1.84zm3.27 0h-1.84v-6.97h1.84zm4.71-6.98h1.83v6.98h-1.83zm-3.27 6.97v-6.97h1.83v6.97zm369.72-36.82h3.02v11.49h-3.02zm-5.38 0h3.01v11.48h-3.01zm-5.39 0h3.02v11.49h-3.02zm-5.39 0h3.02v11.48h-3.02zm-5.38 0h3.02v11.49h-3.02zm-60.22 0h3.02v11.48h-3.02zm-5.38 0h3.02v11.49h-3.02zm-5.39 0h3.02v11.49h-3.02zm-2.36 0v11.48h-1.98q-0.52-0.53-1.04-1.05v-10.43zm-8.41 0h3.02v8.2q-1.48-1.33-3.02-2.57zm-76.54 0v5.39q-1.54 1.21-3.01 2.53v-7.92zm-8.41 0h3.02v10.12q-0.69 0.67-1.36 1.37h-1.66zm-5.38 0h3.01v11.48h-3.01zm-5.39 0h3.02v11.49h-3.02zm-5.39 0h3.02v11.48h-3.02zm-60.21 0h3.02v11.49h-3.02zm-5.38 0h3.01v11.49h-3.01zm-5.39 0h3.02v11.48h-3.02zm-5.39 0h3.02v11.49h-3.02zm-5.38 0h3.02v11.48h-3.02zm367.63 29.85h1.84v6.98h-1.84zm5.11 6.98h-1.84v-6.98h1.84zm3.27 0h-1.83v-6.98h1.83zm3.27 0h-1.83v-6.98h1.83zm3.27 0h-1.83v-6.98h1.83z"/>
			</g>
		</g>
	</g>
</svg>